<?xml version="1.0" encoding="UTF-8"?>
<svg version="1.1" xmlns="http://www.w3.org/2000/svg" width="866" height="650">
<path d="M0 0 C285.78 0 571.56 0 866 0 C866 214.5 866 429 866 650 C580.22 650 294.44 650 0 650 C0 435.5 0 221 0 0 Z " fill="#FEFEFE" transform="translate(0,0)"/>
<path d="M0 0 C0.98226562 0.19867676 1.96453125 0.39735352 2.9765625 0.60205078 C23.66443012 4.8852864 42.40244632 12.07472732 61 22 C62.16789062 22.61359375 63.33578125 23.2271875 64.5390625 23.859375 C91.03453823 38.33320147 91.03453823 38.33320147 95.4296875 48.453125 C97.0431923 55.65863959 97.75579452 63.9661108 93.9375 70.5625 C89.32148552 76.56462647 83.90354711 81.3493897 76.203125 82.37109375 C68.6941435 82.53994651 64.11068619 81.31342555 58 77 C57.24589844 76.46890625 56.49179687 75.9378125 55.71484375 75.390625 C54.0669788 74.22238253 52.41988267 73.05305507 50.7734375 71.8828125 C45.38634437 68.22565914 39.73568706 65.06744779 34 62 C33.37802734 61.66323242 32.75605469 61.32646484 32.11523438 60.97949219 C13.95591943 51.30627181 -6.44930126 45.79272128 -27 45 C-27.92635254 44.96293945 -28.85270508 44.92587891 -29.80712891 44.88769531 C-69.59724679 43.56288835 -108.56835708 54.5602421 -139 81 C-139.82886719 81.71929687 -140.65773438 82.43859375 -141.51171875 83.1796875 C-144.04157476 85.41897811 -146.52696971 87.69821014 -149 90 C-149.72832031 90.66257812 -150.45664062 91.32515625 -151.20703125 92.0078125 C-171.70959353 111.43906972 -186.14236374 139.52287532 -192 167 C-192.29777344 168.28261719 -192.59554687 169.56523437 -192.90234375 170.88671875 C-197.55273185 193.21431001 -197.5452679 220.12368291 -191 242 C-190.75330566 242.85013672 -190.50661133 243.70027344 -190.25244141 244.57617188 C-183.54291688 267.26251998 -173.553445 287.08503717 -158 305 C-157.29230469 305.83015625 -156.58460938 306.6603125 -155.85546875 307.515625 C-145.53392106 319.34356073 -134.14089895 328.54811406 -121 337 C-119.98035156 337.66 -118.96070313 338.32 -117.91015625 339 C-109.71043445 344.03906086 -100.97854954 347.61335412 -92 351 C-91.02643555 351.36786621 -91.02643555 351.36786621 -90.03320312 351.74316406 C-51.10173403 366.18677927 -7.39016857 361.868671 30 345 C39.88126179 340.32279774 48.8122108 334.60211223 57.74316406 328.30444336 C58.51370117 327.76182861 59.28423828 327.21921387 60.078125 326.66015625 C60.76293945 326.17168213 61.44775391 325.68320801 62.15332031 325.17993164 C67.21345792 321.94676863 73.231558 322.49361005 79 323 C86.91715142 325.09258043 91.60652908 331.37118924 95.9375 337.9375 C98.40823405 345.05902754 97.07646692 350.81429462 94.265625 357.640625 C90.90110241 363.9127597 86.1568511 367.30644405 80.375 371.1875 C79.53324219 371.75557373 78.69148438 372.32364746 77.82421875 372.90893555 C43.02409133 396.07325803 3.65864064 408.51716315 -38.1875 408.3125 C-38.9476944 408.31100952 -39.70788879 408.30951904 -40.49111938 408.3079834 C-52.85541502 408.26459025 -64.8691733 407.56119527 -77 405 C-78.03398926 404.7831958 -78.03398926 404.7831958 -79.08886719 404.56201172 C-83.07853805 403.69473372 -87.01101996 402.68183433 -90.93945312 401.57128906 C-93.11323187 400.96860633 -95.29697687 400.41823281 -97.484375 399.8671875 C-117.54943191 394.57747739 -137.16159661 385.13721157 -154 373 C-154.99128906 372.29746094 -155.98257813 371.59492188 -157.00390625 370.87109375 C-201.86226513 338.17771355 -231.51879108 291.10903055 -241.62109375 236.46875 C-245.33320525 212.28262148 -245.22058461 183.89073014 -240 160 C-239.71793701 158.7018335 -239.71793701 158.7018335 -239.43017578 157.37744141 C-230.9464828 120.03434415 -212.30580643 85.79142347 -185.49511719 58.52148438 C-184.22602243 57.23000845 -182.97433375 55.92146436 -181.7265625 54.609375 C-160.60968345 32.71677386 -131.77231635 16.24256045 -103.04541016 6.68164062 C-101.25603006 6.08532298 -99.47665042 5.45916583 -97.69921875 4.828125 C-67.6561493 -5.30313058 -30.98312118 -6.45288433 0 0 Z " fill="#037EFD" transform="translate(433,122)"/>
<path d="M0 0 C5.49389546 5.13684984 7.73841866 10.47571193 8.11328125 17.9921875 C7.92098008 24.96747557 5.76360178 30.48804429 1.2265625 35.8046875 C-4.45306898 41.03306059 -11.3379693 42.78466458 -18.8828125 42.53125 C-23.97218754 41.81667316 -28.16387965 39.36417616 -32.64453125 36.9765625 C-52.05215564 26.85641513 -74.88212384 23.37507831 -96.03515625 29.98828125 C-97.14117187 30.38144531 -98.2471875 30.77460938 -99.38671875 31.1796875 C-100.43085938 31.54191406 -101.475 31.90414062 -102.55078125 32.27734375 C-123.17306374 40.13725762 -138.74272337 55.89468147 -147.77197266 75.77954102 C-155.5538533 93.85932381 -156.75070399 116.79550576 -149.93359375 135.41796875 C-149.42861376 136.67619974 -148.91301533 137.93022284 -148.38671875 139.1796875 C-148.12439453 139.80794434 -147.86207031 140.43620117 -147.59179688 141.08349609 C-144.00890893 149.39416364 -139.30725993 156.35580601 -133.38671875 163.1796875 C-132.74089844 164.01628906 -132.09507812 164.85289062 -131.4296875 165.71484375 C-119.85676004 179.6775918 -100.93170902 187.5240627 -83.38671875 190.1796875 C-59.63136778 192.37023316 -37.58161062 185.90437289 -18.83789062 171.09399414 C-8.04082303 162.10153077 -0.40406672 149.93425917 4.72729492 136.95141602 C5.0820842 136.05624771 5.43687347 135.16107941 5.80241394 134.23878479 C6.07000015 133.55928268 6.33758636 132.87978058 6.61328125 132.1796875 C5.85430542 132.18856995 5.09532959 132.19745239 4.31335449 132.206604 C-2.86559587 132.28700245 -10.04432563 132.34777919 -17.22360992 132.38693619 C-20.9139183 132.4077446 -24.60385233 132.43593669 -28.29394531 132.48144531 C-31.86013936 132.52514693 -35.42597506 132.54887526 -38.99241638 132.55919647 C-41.00421987 132.57010244 -43.01588071 132.60128941 -45.02746582 132.63287354 C-53.26931879 132.63488055 -58.90388279 131.957952 -65.375 126.50390625 C-70.55509723 120.1013672 -73.05309227 114.36507605 -72.80078125 106.02734375 C-71.90892188 99.89370714 -69.11541528 94.36666201 -64.44921875 90.2421875 C-58.09254874 85.96116484 -53.66374391 84.73386938 -46.14355469 84.75976562 C-44.77645103 84.74706131 -44.77645103 84.74706131 -43.38172913 84.73410034 C-40.37804076 84.71076195 -37.37486583 84.70970767 -34.37109375 84.7109375 C-32.27369992 84.7038325 -30.17630803 84.69613301 -28.07891846 84.68786621 C-23.68423054 84.67442751 -19.28972223 84.67284925 -14.89501953 84.67871094 C-9.28184961 84.68459721 -3.66954754 84.6540565 1.94345474 84.61359406 C6.27596627 84.58765401 10.60827083 84.58484555 14.9408493 84.58848572 C17.00917486 84.58679944 19.07751048 84.57720469 21.14575958 84.55934143 C42.60931398 84.39439943 42.60931398 84.39439943 49.61328125 90.1796875 C55.47636175 96.47432643 57.99462577 102.20774375 57.92578125 110.8671875 C57.9208667 111.60831787 57.91595215 112.34944824 57.91088867 113.11303711 C57.31254661 142.32747193 45.50578789 171.11439349 26.61328125 193.1796875 C25.60007812 194.39398438 25.60007812 194.39398438 24.56640625 195.6328125 C2.28403665 221.49337283 -29.72623168 235.77275561 -63.38671875 239.1796875 C-89.36975025 240.7774344 -113.64267954 234.46721051 -136.38671875 222.1796875 C-137.29035156 221.69757813 -138.19398438 221.21546875 -139.125 220.71875 C-166.0869183 205.45062605 -184.34204699 180.63835092 -195.38671875 152.1796875 C-195.76570313 151.220625 -196.1446875 150.2615625 -196.53515625 149.2734375 C-207.62177721 118.93110646 -204.48033506 82.73363285 -191.13671875 53.6171875 C-176.16606938 22.39456166 -151.09627857 -1.88288797 -118.36474609 -14.13232422 C-80.86738403 -27.17448249 -32.62406784 -24.88185862 0 0 Z " fill="#0229BB" transform="translate(467.38671875,215.8203125)"/>
<path d="M0 0 C8.02701116 6.15992249 11.39625688 15.6716258 15.0859375 24.75146484 C15.91340827 26.7869899 16.76416532 28.81045476 17.625 30.83203125 C23.50397062 44.96299449 27.79516734 59.39558859 31.1875 74.3125 C31.42533203 75.34149414 31.66316406 76.37048828 31.90820312 77.43066406 C36.06055364 96.38375974 37.55133277 115.12428849 37.4375 134.5 C37.43343643 136.13177185 37.43343643 136.13177185 37.42929077 137.79650879 C37.36266967 155.50183564 36.3661495 172.58010718 33 190 C32.72712158 191.47194824 32.72712158 191.47194824 32.44873047 192.97363281 C27.77071821 217.61367235 19.34689507 257.52660046 -1.1875 273.8125 C-6.52122224 277.30700768 -12.81527105 277.68351728 -19 277 C-26.28060392 274.82859181 -31.93110746 270.23264459 -36 263.875 C-39.63910045 253.17402955 -36.13081561 243.41737099 -31.5 233.75 C-30.37967996 231.3019654 -29.28285134 228.84383884 -28.19140625 226.3828125 C-27.91716324 225.76743622 -27.64292023 225.15205994 -27.36036682 224.51803589 C-21.18252826 210.47530122 -16.46182448 195.14842666 -14 180 C-13.86754883 179.29053223 -13.73509766 178.58106445 -13.59863281 177.85009766 C-8.67344729 151.08254445 -8.56248467 120.68985134 -14 94 C-14.16628906 93.13068848 -14.33257813 92.26137695 -14.50390625 91.36572266 C-18.26583379 71.95347987 -23.84365154 52.75334598 -33.3359375 35.33984375 C-37.33669882 27.31014673 -38.61713987 18.44565829 -36 9.75 C-33.36651634 3.72884252 -27.9524152 -0.42504072 -22 -2.9375 C-14.02892556 -5.41876831 -7.1402908 -4.14045617 0 0 Z " fill="#2CBAF6" transform="translate(639,188)"/>
<path d="M0 0 C11.784142 10.73165084 15.81429859 33.68852851 19.26171875 48.54296875 C19.45652832 49.37634766 19.65133789 50.20972656 19.85205078 51.06835938 C22.82370595 64.60968142 23.78212699 77.97692253 23.70996094 91.79394531 C23.69922625 94.22876872 23.70993933 96.66285472 23.72265625 99.09765625 C23.73735136 113.38706855 22.36906963 127.10272126 18.76171875 140.98046875 C18.50261719 141.99270508 18.24351562 143.00494141 17.9765625 144.04785156 C7.76072914 182.90450347 7.76072914 182.90450347 -3.62890625 190.18359375 C-9.96551394 193.63524184 -16.42614754 194.27443821 -23.55078125 193.23046875 C-30.59205479 190.16444874 -36.63634164 184.39670986 -39.55078125 177.23046875 C-40.80091583 168.11891093 -39.17687177 161.33169197 -35.27734375 153.14453125 C-33.15811309 148.56766503 -31.73162831 143.80879361 -30.30078125 138.98046875 C-30.05505371 138.16497559 -29.80932617 137.34948242 -29.55615234 136.50927734 C-19.68991764 102.81720775 -22.36863218 63.82630335 -36.23828125 31.66796875 C-39.46681603 24.14138458 -41.09589527 17.07631416 -38.9375 8.91015625 C-36.09366837 2.52093099 -30.86411304 -2.11286536 -24.67578125 -5.20703125 C-15.10757515 -6.92930835 -8.00646262 -5.55425355 0 0 Z " fill="#2DBAF5" transform="translate(576.55078125,230.76953125)"/>
<path d="M0 0 C0.66 0.33 1.32 0.66 2 1 C1.90509221 6.54631845 1.79873211 12.09226852 1.68261719 17.63818359 C1.64478363 19.51735731 1.60985966 21.3965923 1.578125 23.27587891 C1.01936787 55.98063213 1.01936787 55.98063213 -2 59 C-2.18577936 60.70445187 -2.32329536 62.41426114 -2.4375 64.125 C-2.80648019 68.68964198 -3.55493345 72.66480036 -5 77 C-5.66 77 -6.32 77 -7 77 C-6.23943733 70.55715662 -5.21916709 64.18881017 -4.10546875 57.79882812 C-3.97785156 57.05181641 -3.85023438 56.30480469 -3.71875 55.53515625 C-3.54762695 54.55107788 -3.54762695 54.55107788 -3.37304688 53.54711914 C-2.32919009 46.41979068 -1.83412211 39.38781503 -1.71875 32.1875 C-1.68101015 30.35286416 -1.64324914 28.51822876 -1.60546875 26.68359375 C-1.55154732 23.82180028 -1.4992795 20.95998211 -1.44775391 18.09814453 C-1.39624664 15.31533462 -1.33898576 12.53268653 -1.28125 9.75 C-1.26767456 8.88656982 -1.25409912 8.02313965 -1.2401123 7.13354492 C-1.11298644 1.11298644 -1.11298644 1.11298644 0 0 Z " fill="#50BBE9" transform="translate(630,303)"/>
<path d="M0 0 C0.91800385 -0.00058411 1.83600769 -0.00116821 2.78182983 -0.00177002 C5.79049622 0.00099781 8.79814914 0.03202806 11.80664062 0.06347656 C13.90270446 0.07094358 15.9987753 0.07663433 18.09484863 0.08062744 C23.592443 0.09584741 29.08960984 0.135098 34.58703613 0.17944336 C40.20444965 0.22047455 45.82193272 0.2386552 51.43945312 0.25878906 C62.44745272 0.30159568 73.45513602 0.36980295 84.46289062 0.45410156 C84.46289062 0.78410156 84.46289062 1.11410156 84.46289062 1.45410156 C82.77945557 1.46290092 82.77945557 1.46290092 81.06201172 1.47187805 C70.46873981 1.52917148 59.87567189 1.60196782 49.28260803 1.68981647 C43.83702076 1.73448208 38.39150765 1.77374673 32.94580078 1.80053711 C27.68720312 1.8266079 22.42889142 1.86703733 17.17047119 1.91728783 C15.16753708 1.93393096 13.16455355 1.9454611 11.16156006 1.95171547 C8.34894055 1.96138427 5.53704842 1.98947691 2.72460938 2.02172852 C1.90245438 2.02029343 1.08029938 2.01885834 0.23323059 2.01737976 C-3.85991929 2.08345609 -7.10953675 2.51618257 -10.9284668 4.04362488 C-14.53710938 5.45410156 -14.53710938 5.45410156 -17.53710938 4.45410156 C-11.40558446 0.90261063 -7.02780108 -0.118874 0 0 Z " fill="#072F9B" transform="translate(421.537109375,300.5458984375)"/>
<path d="M0 0 C1.05412561 3.16237683 0.97047525 4.04515369 0.2578125 7.16796875 C0.07863281 7.97943359 -0.10054687 8.79089844 -0.28515625 9.62695312 C-0.47980469 10.47193359 -0.67445313 11.31691406 -0.875 12.1875 C-1.25066857 13.84691874 -1.62309976 15.50707391 -1.9921875 17.16796875 C-2.24524658 18.27047974 -2.24524658 18.27047974 -2.50341797 19.39526367 C-3.69853261 25.66403362 -4.16499241 31.85489784 -4.31640625 38.21875 C-4.33718735 38.96209595 -4.35796844 39.70544189 -4.37937927 40.47131348 C-4.44405128 42.81412748 -4.50337092 45.15704024 -4.5625 47.5 C-4.60576384 49.10157216 -4.64938044 50.70313482 -4.69335938 52.3046875 C-4.79964636 56.20302733 -4.90113794 60.1014651 -5 64 C-5.33 64 -5.66 64 -6 64 C-7.20864168 58.29521125 -7.19118466 52.67834585 -7.1875 46.875 C-7.18814453 45.82634766 -7.18878906 44.77769531 -7.18945312 43.69726562 C-7.12318915 33.71550207 -6.22637023 23.89855968 -5 14 C-4.34 14 -3.68 14 -3 14 C-3.061875 12.989375 -3.12375 11.97875 -3.1875 10.9375 C-2.97357173 6.44500628 -1.95386468 3.98914039 0 0 Z " fill="#2587E5" transform="translate(242,278)"/>
<path d="M0 0 C0.59683594 0.31453125 1.19367188 0.6290625 1.80859375 0.953125 C19.60308202 9.73138667 38.5745567 10.78801578 58 8 C57.67 8.66 57.34 9.32 57 10 C50.821099 12.00778934 45.08576186 12.30618054 38.625 12.25 C37.74328125 12.25773437 36.8615625 12.26546875 35.953125 12.2734375 C28.20843789 12.25072581 20.91233455 11.23400746 13.6875 8.375 C10.4130536 7.15401999 8.42213747 6.67917461 5 7 C4.67 6.01 4.34 5.02 4 4 C1.99983534 2.79117904 1.99983534 2.79117904 0 2 C0 1.34 0 0.68 0 0 Z " fill="#1033AA" transform="translate(356,397)"/>
<path d="M0 0 C0.33 0 0.66 0 1 0 C1.02495131 6.17065139 1.04297757 12.3412726 1.05493164 18.51196289 C1.05992175 20.6057181 1.06671621 22.6994699 1.07543945 24.79321289 C1.18917878 52.81992128 1.18917878 52.81992128 0 58 C-0.99 58.66 -1.98 59.32 -3 60 C-3.08875483 54.76418664 -2.80500375 49.88246052 -2.0390625 44.6875 C-0.78192025 35.47255842 -0.555496 26.28802341 -0.375 17 C-0.33667824 15.33852442 -0.29761921 13.67706567 -0.2578125 12.015625 C-0.16341786 8.01055877 -0.07885153 4.00540113 0 0 Z " fill="#BFEEFB" transform="translate(676,312)"/>
<path d="M0 0 C1.03608398 0.00080566 2.07216797 0.00161133 3.13964844 0.00244141 C9.9004555 0.0553088 16.58666839 0.37173892 23.3125 1.0625 C24.09165771 1.14089111 24.87081543 1.21928223 25.67358398 1.30004883 C29.39650336 1.73375875 32.28253725 2.40625021 35.5625 4.1875 C33.94408203 4.09662109 33.94408203 4.09662109 32.29296875 4.00390625 C28.26005085 3.7780374 24.22697526 3.555098 20.19384766 3.33300781 C18.45389496 3.23679221 16.71398501 3.13980004 14.97412109 3.04199219 C12.46202471 2.9009117 9.94978385 2.76269705 7.4375 2.625 C6.66946045 2.58125244 5.9014209 2.53750488 5.11010742 2.49243164 C-3.49520913 1.86199454 -3.49520913 1.86199454 -12 2.75 C-15.2955514 3.34150923 -18.16413377 2.76515286 -21.4375 2.1875 C-21.4375 1.8575 -21.4375 1.5275 -21.4375 1.1875 C-14.27675401 0.33659226 -7.20924008 -0.00589183 0 0 Z " fill="#D1F2FD" transform="translate(393.4375,165.8125)"/>
<path d="M0 0 C-4.11449263 2.12818584 -7.34804106 3.12545428 -11.99047852 3.14526367 C-13.00485489 3.15164352 -14.01923126 3.15802338 -15.06434631 3.16459656 C-16.70505348 3.16626579 -16.70505348 3.16626579 -18.37890625 3.16796875 C-19.50191635 3.17129715 -20.62492645 3.17462555 -21.78196716 3.17805481 C-24.15664256 3.18311927 -26.53132507 3.18546328 -28.90600586 3.18530273 C-32.55138752 3.18749332 -36.19646862 3.20566558 -39.84179688 3.22460938 C-42.14583229 3.22754249 -44.44986916 3.22952783 -46.75390625 3.23046875 C-47.84973526 3.23765427 -48.94556427 3.24483978 -50.07460022 3.25224304 C-51.08582443 3.24916641 -52.09704865 3.24608978 -53.13891602 3.24291992 C-54.47769554 3.24505745 -54.47769554 3.24505745 -55.84352112 3.24723816 C-58 3 -58 3 -60 1 C-58.70900391 1.00523682 -57.41800781 1.01047363 -56.08789062 1.01586914 C-51.27214254 1.03404702 -46.45639746 1.04547857 -41.640625 1.05493164 C-39.56119272 1.05994271 -37.48176393 1.06675335 -35.40234375 1.07543945 C-32.40363703 1.08764683 -29.40497714 1.09326071 -26.40625 1.09765625 C-25.48509399 1.10281754 -24.56393799 1.10797882 -23.61486816 1.11329651 C-15.67709145 1.11397757 -7.93130182 -0.14163039 0 0 Z " fill="#D1F6FE" transform="translate(428,528)"/>
<path d="M0 0 C1.18613892 0.00785522 1.18613892 0.00785522 2.39624023 0.01586914 C3.67724609 0.02070312 3.67724609 0.02070312 4.98413086 0.02563477 C5.88196289 0.03401367 6.77979492 0.04239258 7.70483398 0.05102539 C8.6065332 0.05553711 9.50823242 0.06004883 10.43725586 0.06469727 C12.67234712 0.07652315 14.90730835 0.09300319 17.14233398 0.11352539 C17.14233398 0.44352539 17.14233398 0.77352539 17.14233398 1.11352539 C5.57729625 2.87126845 -5.67144989 3.36780309 -17.35766602 3.23852539 C-18.97094159 3.22845663 -20.58422339 3.21933779 -22.19750977 3.21118164 C-26.08438706 3.18951992 -29.97095408 3.15521455 -33.85766602 3.11352539 C-33.85766602 2.78352539 -33.85766602 2.45352539 -33.85766602 2.11352539 C-32.9238208 2.08846924 -31.98997559 2.06341309 -31.02783203 2.03759766 C-27.57441413 1.94265611 -24.12117642 1.84341281 -20.66796875 1.74121094 C-19.17127332 1.69780726 -17.67452663 1.65613626 -16.17773438 1.61621094 C-14.03052289 1.55863923 -11.8835708 1.49490823 -9.73657227 1.42993164 C-8.44307861 1.39327393 -7.14958496 1.35661621 -5.81689453 1.31884766 C-2.84012819 1.11230855 -2.62349778 0.16032678 0 0 Z " fill="#2587E6" transform="translate(410.857666015625,526.886474609375)"/>
<path d="M0 0 C0 4 0 4 -2.3125 6.6875 C-5 9 -5 9 -8 10 C-8.33 10.66 -8.66 11.32 -9 12 C-9.639375 12.28875 -10.27875 12.5775 -10.9375 12.875 C-13.16454875 13.83060024 -13.16454875 13.83060024 -14 16.0625 C-15 18 -15 18 -17.125 18.75 C-18.053125 18.87375 -18.053125 18.87375 -19 19 C-17.61314777 15.8804428 -15.99810509 13.74144201 -13.59375 11.328125 C-12.60181641 10.33232422 -12.60181641 10.33232422 -11.58984375 9.31640625 C-10.55537109 8.29353516 -10.55537109 8.29353516 -9.5 7.25 C-8.81035156 6.55261719 -8.12070313 5.85523438 -7.41015625 5.13671875 C-6.74886719 4.47800781 -6.08757812 3.81929687 -5.40625 3.140625 C-4.80103516 2.53766602 -4.19582031 1.93470703 -3.57226562 1.31347656 C-2 0 -2 0 0 0 Z " fill="#1B82EB" transform="translate(259,171)"/>
<path d="M0 0 C3.07179903 2.58146226 4.22951163 5.45348423 5.734375 9.12890625 C6.22550781 10.32837891 6.71664062 11.52785156 7.22265625 12.76367188 C7.47289551 13.38685303 7.72313477 14.01003418 7.98095703 14.65209961 C8.7505921 16.56397086 9.53651122 18.46856148 10.32421875 20.37304688 C11.05318359 22.17032227 11.05318359 22.17032227 11.796875 24.00390625 C12.24385742 25.10549072 12.69083984 26.2070752 13.15136719 27.34204102 C14 30 14 30 13 32 C9.42988974 28.267612 8.89086558 23.9050011 8 19 C7.34 19 6.68 19 6 19 C5.51787786 17.43840941 5.03944127 15.87568072 4.5625 14.3125 C4.29566406 13.44238281 4.02882813 12.57226562 3.75390625 11.67578125 C3.03655471 9.12974079 2.482459 6.5996577 2 4 C1.34 4 0.68 4 0 4 C0 2.68 0 1.36 0 0 Z " fill="#4EB9EA" transform="translate(647,200)"/>
<path d="M0 0 C0 0.66 0 1.32 0 2 C-1.44632812 2.59748047 -1.44632812 2.59748047 -2.921875 3.20703125 C-4.19803957 3.74189434 -5.47407445 4.27706696 -6.75 4.8125 C-7.38421875 5.07353516 -8.0184375 5.33457031 -8.671875 5.60351562 C-11.35741944 6.73647969 -13.78665603 7.83999202 -16.125 9.59375 C-18.41092343 11.30819257 -20.50509961 11.92904068 -23.25 12.6875 C-24.58804687 13.06455078 -24.58804687 13.06455078 -25.953125 13.44921875 C-26.62859375 13.63097656 -27.3040625 13.81273437 -28 14 C-25.57378426 11.24314349 -23.04663788 9.87185959 -19.74609375 8.30078125 C-18.72708984 7.81416016 -17.70808594 7.32753906 -16.65820312 6.82617188 C-15.06395508 6.0769043 -15.06395508 6.0769043 -13.4375 5.3125 C-12.37080078 4.80138672 -11.30410156 4.29027344 -10.20507812 3.76367188 C-2.27071512 0 -2.27071512 0 0 0 Z " fill="#2586E4" transform="translate(322,132)"/>
<path d="M0 0 C3.96 0 7.92 0 12 0 C1.1982633 5.40086835 -12.19927278 4.24083117 -24 4 C-24 3.67 -24 3.34 -24 3 C-16.08 2.67 -8.16 2.34 0 2 C0 1.34 0 0.68 0 0 Z " fill="#425BB9" transform="translate(410,451)"/>
<path d="M0 0 C1.88323108 0.94496648 3.7040701 2.01251048 5.5078125 3.1015625 C5.1778125 3.7615625 4.8478125 4.4215625 4.5078125 5.1015625 C3.3940625 4.6065625 2.2803125 4.1115625 1.1328125 3.6015625 C-5.17972692 1.22454943 -11.99680045 1.36945929 -18.4921875 3.1015625 C-18.4921875 2.4415625 -18.4921875 1.7815625 -18.4921875 1.1015625 C-12.56283964 -1.56931492 -6.21080805 -2.23900604 0 0 Z " fill="#DAFBFE" transform="translate(568.4921875,223.8984375)"/>
<path d="M0 0 C0.66 0 1.32 0 2 0 C2.226875 0.61875 2.45375 1.2375 2.6875 1.875 C4.48547882 4.78601333 5.6854279 5.15372627 9 6 C14.42860199 6.39721478 19.64983019 5.9106672 25 5 C21.67843968 8.32156032 17.87741816 8.24058196 13.3125 8.4375 C6.75404622 8.42945282 2.91058842 6.16655987 -2 2 C-1.34 1.34 -0.68 0.68 0 0 Z " fill="#4FB9EB" transform="translate(546,416)"/>
<path d="M0 0 C1.27355487 3.82066461 0.47900238 5.38917017 -0.75 9.1875 C-1.12125 10.33992188 -1.4925 11.49234375 -1.875 12.6796875 C-3.16652684 16.49148546 -4.53073269 20.25336836 -6 24 C-6.33 24 -6.66 24 -7 24 C-7.42195656 19.63978226 -6.20291908 16.22262952 -4.75390625 12.18359375 C-4.04746575 10.13747852 -3.49202887 8.10664786 -3 6 C-2.34 6 -1.68 6 -1 6 C-1.020625 5.195625 -1.04125 4.39125 -1.0625 3.5625 C-1 1 -1 1 0 0 Z " fill="#49B8E7" transform="translate(664,402)"/>
<path d="M0 0 C7.60913098 1.2794114 14.73225897 3.42756933 22 6 C17.98226748 7.23026927 15.9728195 6.32427317 12 5 C9.66787973 4.92477031 7.3314689 4.90674124 5 5 C4.67 4.01 4.34 3.02 4 2 C1.99983534 0.79117904 1.99983534 0.79117904 0 0 Z " fill="#D1F3FD" transform="translate(433,171)"/>
<path d="M0 0 C1.09957031 0.00451172 2.19914062 0.00902344 3.33203125 0.01367188 C6.01308003 0.02532861 8.69400932 0.04168983 11.375 0.0625 C11.375 0.3925 11.375 0.7225 11.375 1.0625 C10.73473877 1.08755615 10.09447754 1.1126123 9.43481445 1.13842773 C6.51886274 1.2548546 3.6031971 1.37736867 0.6875 1.5 C-0.31990234 1.53931641 -1.32730469 1.57863281 -2.36523438 1.61914062 C-3.34169922 1.66103516 -4.31816406 1.70292969 -5.32421875 1.74609375 C-6.21971436 1.78275146 -7.11520996 1.81940918 -8.0378418 1.85717773 C-10.64207016 2.0081428 -10.64207016 2.0081428 -13.21801758 2.60961914 C-16.50247663 3.22759982 -19.35932232 2.63879606 -22.625 2.0625 C-22.625 1.7325 -22.625 1.4025 -22.625 1.0625 C-15.06121983 0.12311705 -7.61592495 -0.06015008 0 0 Z " fill="#BCE9FE" transform="translate(394.625,165.9375)"/>
<path d="M0 0 C0.51046875 0.28875 1.0209375 0.5775 1.546875 0.875 C9.02036441 4.69124991 16.89047823 5.36929021 25 3 C24.67 3.99 24.34 4.98 24 6 C21.27056463 6.05416741 18.54221436 6.09375225 15.8125 6.125 C14.65911133 6.15013672 14.65911133 6.15013672 13.48242188 6.17578125 C9.1850566 6.21266851 5.92098169 5.9958504 2 4 C2 3.34 2 2.68 2 2 C1.34 2 0.68 2 0 2 C0 1.34 0 0.68 0 0 Z " fill="#D8F7FE" transform="translate(491,199)"/>
<path d="M0 0 C1.06347656 -0.01417969 2.12695312 -0.02835937 3.22265625 -0.04296875 C5.9375 0.1875 5.9375 0.1875 7.9375 2.1875 C6.52597656 2.27837891 6.52597656 2.27837891 5.0859375 2.37109375 C3.84070313 2.45488281 2.59546875 2.53867187 1.3125 2.625 C0.08273437 2.70621094 -1.14703125 2.78742188 -2.4140625 2.87109375 C-5.67782388 3.15413944 -8.84193859 3.59788953 -12.0625 4.1875 C-8.43157448 0.21077205 -5.2385446 0.03182591 0 0 Z " fill="#2D8AE2" transform="translate(506.0625,444.8125)"/>
<path d="M0 0 C0.99 0.495 0.99 0.495 2 1 C2.74609375 3.51171875 2.74609375 3.51171875 3.4375 6.6875 C4.48215817 11.19828041 5.88450238 14.87477964 8 19 C7.67 19.99 7.34 20.98 7 22 C4.18991614 19.18991614 3.50511666 15.83730183 2.375 12.125 C2.14554688 11.40441406 1.91609375 10.68382812 1.6796875 9.94140625 C0.59826109 6.4460816 0 3.68971872 0 0 Z " fill="#D4F6FE" transform="translate(241,360)"/>
<path d="M0 0 C0.33 0 0.66 0 1 0 C1 4.62 1 9.24 1 14 C1.66 14 2.32 14 3 14 C3.33 16.31 3.66 18.62 4 21 C-0.33518913 15.96558682 -1.14251651 12.87243285 -1.125 6.3125 C-1.12757813 5.33925781 -1.13015625 4.36601562 -1.1328125 3.36328125 C-1 1 -1 1 0 0 Z " fill="#2242AA" transform="translate(396,318)"/>
<path d="M0 0 C0.33 0 0.66 0 1 0 C1.625 3.375 1.625 3.375 2 7 C1.34 7.66 0.68 8.32 0 9 C-0.46290221 11.66242821 -0.46290221 11.66242821 -0.625 14.625 C-0.69976562 15.62789063 -0.77453125 16.63078125 -0.8515625 17.6640625 C-0.90054688 18.43492187 -0.94953125 19.20578125 -1 20 C-1.66 20 -2.32 20 -3 20 C-3.33 20.99 -3.66 21.98 -4 23 C-3.48400816 15.1177798 -1.9078547 7.65541695 0 0 Z " fill="#D1F6FF" transform="translate(242,281)"/>
<path d="M0 0 C-4.20982312 2.25735559 -8.42694728 3.16760476 -13.0625 4.1875 C-13.87783203 4.37763672 -14.69316406 4.56777344 -15.53320312 4.76367188 C-16.70979492 5.02567383 -16.70979492 5.02567383 -17.91015625 5.29296875 C-18.97955444 5.53309692 -18.97955444 5.53309692 -20.07055664 5.77807617 C-22 6 -22 6 -25 5 C-22.78899655 4.26299885 -20.57771278 3.52744541 -18.36328125 2.80078125 C-16.57596293 2.19516099 -14.81208288 1.51977819 -13.0625 0.8125 C-8.70253969 -0.34422416 -4.48394088 -0.15950778 0 0 Z " fill="#D3F4FE" transform="translate(360,121)"/>
<path d="M0 0 C0.66 0 1.32 0 2 0 C0.79662881 6.89203498 -1.32135086 12.06080693 -5 18 C-5.33 18 -5.66 18 -6 18 C-6.1875 15.6875 -6.1875 15.6875 -6 13 C-5.02149805 11.97895449 -4.02019573 10.9793879 -3 10 C-2.27802838 7.39388923 -2.27802838 7.39388923 -2 5 C-1.34 5 -0.68 5 0 5 C0 3.35 0 1.7 0 0 Z " fill="#E2F1FE" transform="translate(471,349)"/>
<path d="M0 0 C-3.96 2.64 -7.92 5.28 -12 8 C-13.2077558 4.37673261 -12.54311128 3.35853631 -11 0 C-10.67 0.99 -10.34 1.98 -10 3 C-9.34 3 -8.68 3 -8 3 C-7.67 2.01 -7.34 1.02 -7 0 C-4 -1 -4 -1 0 0 Z " fill="#1033B2" transform="translate(356,252)"/>
<path d="M0 0 C0.70125 0.13277344 1.4025 0.26554687 2.125 0.40234375 C7.7404558 1.44761202 13.32433509 2.3574719 19 3 C19 3.66 19 4.32 19 5 C19.66 5.33 20.32 5.66 21 6 C13.39845954 5.67021516 7.02680781 3.87217429 0 1 C0 0.67 0 0.34 0 0 Z " fill="#CAF1FE" transform="translate(345,474)"/>
<path d="M0 0 C0.66 0 1.32 0 2 0 C2 0.99 2 1.98 2 3 C7.28 3 12.56 3 18 3 C12.91724113 5.54137943 8.35597199 6.05945831 2.859375 4.32421875 C1.20919133 3.61651803 -0.40088694 2.81656837 -2 2 C-1.34 1.34 -0.68 0.68 0 0 Z " fill="#4EB9E9" transform="translate(615,460)"/>
<path d="M0 0 C3.02140374 1.04811008 3.91319573 1.84692101 5.51953125 4.6796875 C5.94621094 5.73414063 6.37289062 6.78859375 6.8125 7.875 C7.25207031 8.92429688 7.69164062 9.97359375 8.14453125 11.0546875 C9.02929417 14.10085755 8.88795351 15.08663511 8 18 C6.66180502 15.3773768 5.3292849 12.75213401 4 10.125 C3.6184375 9.37863281 3.236875 8.63226563 2.84375 7.86328125 C2.4828125 7.14785156 2.121875 6.43242187 1.75 5.6953125 C1.41484375 5.03547363 1.0796875 4.37563477 0.734375 3.69580078 C0 2 0 2 0 0 Z " fill="#51BEE6" transform="translate(604,218)"/>
<path d="M0 0 C0 3.86905083 -1.15035813 4.7158362 -3.6875 7.5625 C-4.37199219 8.34753906 -5.05648438 9.13257813 -5.76171875 9.94140625 C-8.09742935 12.08960779 -10.00384634 13.0292672 -13 14 C-8.88380164 9.08064098 -4.59589638 4.47352044 0 0 Z " fill="#D1F4FE" transform="translate(291,204)"/>
<path d="M0 0 C0.75732422 0.00644531 1.51464844 0.01289063 2.29492188 0.01953125 C3.08060547 0.03628906 3.86628906 0.05304688 4.67578125 0.0703125 C5.47306641 0.07933594 6.27035156 0.08835938 7.09179688 0.09765625 C9.05742025 0.12119665 11.022889 0.15706703 12.98828125 0.1953125 C12.98828125 0.8553125 12.98828125 1.5153125 12.98828125 2.1953125 C12.21484375 2.17210937 11.44140625 2.14890625 10.64453125 2.125 C4.35502687 2.01602344 -0.99512074 2.34405157 -7.01171875 4.1953125 C-7.01171875 3.5353125 -7.01171875 2.8753125 -7.01171875 2.1953125 C-3.96490814 0.16410543 -3.41053551 -0.05128625 0 0 Z " fill="#D6FAFF" transform="translate(620.01171875,182.8046875)"/>
<path d="M0 0 C0.67578125 1.734375 0.67578125 1.734375 1 4 C-0.14453125 6.140625 -0.14453125 6.140625 -1.8125 8.25 C-2.35519531 8.95640625 -2.89789062 9.6628125 -3.45703125 10.390625 C-3.96621094 10.92171875 -4.47539063 11.4528125 -5 12 C-5.66 12 -6.32 12 -7 12 C-7.33 12.99 -7.66 13.98 -8 15 C-9.65 15.33 -11.3 15.66 -13 16 C-10.48593563 13.48593563 -7.98075217 10.98212701 -5.375 8.5625 C-2.88224657 5.87295024 -1.47540065 3.33906463 0 0 Z " fill="#CBF1FF" transform="translate(528,476)"/>
<path d="M0 0 C0.66 0 1.32 0 2 0 C3.60355101 3.50776784 4.22036864 6.14354879 4 10 C4.66 10 5.32 10 6 10 C6 12.97 6 15.94 6 19 C4.21823903 15.43647806 3.03162634 12.1704479 1.875 8.375 C1.52179687 7.22773438 1.16859375 6.08046875 0.8046875 4.8984375 C0 2 0 2 0 0 Z " fill="#45B8E5" transform="translate(617,248)"/>
<path d="M0 0 C0.66 0 1.32 0 2 0 C1.63636795 2.57798841 1.40466367 3.69164073 -0.70703125 5.30078125 C-1.40183594 5.63464844 -2.09664063 5.96851563 -2.8125 6.3125 C-3.49957031 6.65925781 -4.18664062 7.00601562 -4.89453125 7.36328125 C-7.34106905 8.10314333 -8.61786119 7.82973374 -11 7 C-10.28972656 6.57847656 -9.57945312 6.15695312 -8.84765625 5.72265625 C-7.92855469 5.17480469 -7.00945312 4.62695312 -6.0625 4.0625 C-5.14597656 3.51722656 -4.22945313 2.97195313 -3.28515625 2.41015625 C-1.11587323 1.19267827 -1.11587323 1.19267827 0 0 Z " fill="#173AAC" transform="translate(444,390)"/>
<path d="M0 0 C6.07392752 2.37675425 11.46768581 5.56039218 17 9 C16.01 9.495 16.01 9.495 15 10 C12.375 9.0625 12.375 9.0625 10 8 C10 7.34 10 6.68 10 6 C8.9171875 5.8453125 8.9171875 5.8453125 7.8125 5.6875 C4.72206579 4.93206053 2.58256159 3.84468685 0 2 C0 1.34 0 0.68 0 0 Z " fill="#1C84DE" transform="translate(487,141)"/>
<path d="M0 0 C-5.31944433 4.45683174 -10.18848171 4.75759721 -17 5 C-13.97546033 2.98364022 -11.36924652 1.96753498 -7.9375 0.8125 C-6.87402344 0.44769531 -5.81054688 0.08289063 -4.71484375 -0.29296875 C-2 -1 -2 -1 0 0 Z " fill="#C7F1FE" transform="translate(471,517)"/>
<path d="M0 0 C0.66 0.33 1.32 0.66 2 1 C-3.67793686 5.29788276 -7.81595146 7.73876187 -15 8 C-12.05213324 6.03475549 -9.09027063 4.42527817 -5.9375 2.8125 C-4.87402344 2.26207031 -3.81054688 1.71164062 -2.71484375 1.14453125 C-1.81894531 0.76683594 -0.92304688 0.38914062 0 0 Z " fill="#2284E8" transform="translate(471,463)"/>
<path d="M0 0 C3.28788824 3.11016455 5.83735988 6.01618925 8 10 C6.02 10 4.04 10 2 10 C1.67 9.01 1.34 8.02 1 7 C1.66 7 2.32 7 3 7 C3 6.34 3 5.68 3 5 C2.34 5 1.68 5 1 5 C0.67 3.35 0.34 1.7 0 0 Z " fill="#193BB7" transform="translate(328,373)"/>
<path d="M0 0 C0.66 0.33 1.32 0.66 2 1 C-4.07792208 7.24675325 -4.07792208 7.24675325 -7 9 C-7.99 8.67 -8.98 8.34 -10 8 C-8.89764064 7.03958829 -7.79303376 6.08175593 -6.6875 5.125 C-5.76517578 4.32449219 -5.76517578 4.32449219 -4.82421875 3.5078125 C-3 2 -3 2 0 0 Z " fill="#E1F2FE" transform="translate(351,254)"/>
<path d="M0 0 C0.66 0 1.32 0 2 0 C2 0.66 2 1.32 2 2 C2.66 2 3.32 2 4 2 C4.28875 2.886875 4.5775 3.77375 4.875 4.6875 C5.9141027 7.92345262 5.9141027 7.92345262 7.1875 10.625 C8.1080572 13.31585952 7.78929418 14.34662807 7 17 C6.01649975 14.91870896 5.03835542 12.83488641 4.0625 10.75 C3.51722656 9.58984375 2.97195313 8.4296875 2.41015625 7.234375 C1.33551734 4.76955223 0.51219919 2.61934773 0 0 Z " fill="#D8FAFE" transform="translate(647,198)"/>
<path d="M0 0 C-4.02707549 2.7686144 -8.14923745 4.42138021 -13 5 C-15.24609375 4.546875 -15.24609375 4.546875 -17 4 C-14.92227529 3.13227971 -12.83756823 2.28126381 -10.75 1.4375 C-9.58984375 0.96183594 -8.4296875 0.48617187 -7.234375 -0.00390625 C-4.13733356 -0.95770524 -2.92678299 -1.20983356 0 0 Z " fill="#C7F0FE" transform="translate(350,174)"/>
<path d="M0 0 C3.40077605 4.53436807 3.40077605 4.53436807 3.3125 8.5 C3.30863281 9.2528125 3.30476562 10.005625 3.30078125 10.78125 C3 13 3 13 1 17 C0.67 11.39 0.34 5.78 0 0 Z " fill="#3492E8" transform="translate(527,459)"/>
<path d="M0 0 C0.66 0.33 1.32 0.66 2 1 C-3.04615385 6.78461538 -3.04615385 6.78461538 -7.875 7.875 C-9.421875 7.936875 -9.421875 7.936875 -11 8 C-7.71644638 4.32241995 -4.37221763 2.18610882 0 0 Z " fill="#D2F1FD" transform="translate(320,184)"/>
<path d="M0 0 C1.32 0.66 2.64 1.32 4 2 C2.71475739 2.86380259 1.42157581 3.71580369 0.125 4.5625 C-0.59429687 5.03816406 -1.31359375 5.51382812 -2.0546875 6.00390625 C-2.69664062 6.33261719 -3.33859375 6.66132813 -4 7 C-4.66 6.67 -5.32 6.34 -6 6 C-6 4.68 -6 3.36 -6 2 C-4.35 2 -2.7 2 -1 2 C-0.67 1.34 -0.34 0.68 0 0 Z " fill="#1684EC" transform="translate(502,496)"/>
<path d="M0 0 C0.33 0 0.66 0 1 0 C1 2.31 1 4.62 1 7 C0.34 7 -0.32 7 -1 7 C-0.938125 8.1446875 -0.938125 8.1446875 -0.875 9.3125 C-1 12 -1 12 -3 15 C-3.66 15 -4.32 15 -5 15 C-3.33333333 10 -1.66666667 5 0 0 Z " fill="#56BDEC" transform="translate(616,401)"/>
<path d="M0 0 C1.55403686 2.93163286 2.69801632 5.83365224 3.6875 9 C3.95949219 9.845625 4.23148438 10.69125 4.51171875 11.5625 C5.02468085 14.1232068 4.84216387 15.55828998 4 18 C0.15839684 12.23759526 -0.23538321 6.70842135 0 0 Z " fill="#2384E3" transform="translate(239,356)"/>
<path d="M0 0 C-2.25 2.5 -2.25 2.5 -5 5 C-6.32 5 -7.64 5 -9 5 C-9.33 4.01 -9.66 3.02 -10 2 C-8.71211992 1.46987262 -7.41953322 0.9511671 -6.125 0.4375 C-5.40570313 0.14746094 -4.68640625 -0.14257812 -3.9453125 -0.44140625 C-2 -1 -2 -1 0 0 Z " fill="#E0EDF7" transform="translate(370,247)"/>
<path d="M0 0 C0.33 0 0.66 0 1 0 C1 5.28 1 10.56 1 16 C0.01 16.33 -0.98 16.66 -2 17 C-3 14 -3 14 -2.125 11.875 C-0.60146821 7.98152986 -0.342989 4.14294608 0 0 Z " fill="#D3E1FA" transform="translate(475,231)"/>
<path d="M0 0 C3.875 1.75 3.875 1.75 5 4 C5.99 4.33 6.98 4.66 8 5 C8.33 5.99 8.66 6.98 9 8 C9.66 8.66 10.32 9.32 11 10 C8 10 8 10 5.95703125 8.3203125 C5.24933594 7.59585937 4.54164063 6.87140625 3.8125 6.125 C2.73935547 5.04605469 2.73935547 5.04605469 1.64453125 3.9453125 C0 2 0 2 0 0 Z " fill="#258AE6" transform="translate(244,463)"/>
<path d="M0 0 C0.66 1.32 1.32 2.64 2 4 C3.32 4 4.64 4 6 4 C6.33 5.98 6.66 7.96 7 10 C5.87105124 9.06725891 4.74699124 8.12859878 3.625 7.1875 C2.99851562 6.66542969 2.37203125 6.14335937 1.7265625 5.60546875 C0 4 0 4 -2 1 C-1.34 0.67 -0.68 0.34 0 0 Z " fill="#D7F6FE" transform="translate(282,432)"/>
<path d="M0 0 C0.99 0.33 1.98 0.66 3 1 C-1.455 4.465 -1.455 4.465 -6 8 C-6.33 7.34 -6.66 6.68 -7 6 C-5.68 4.35 -4.36 2.7 -3 1 C-2.01 1.33 -1.02 1.66 0 2 C0 1.34 0 0.68 0 0 Z " fill="#1636AD" transform="translate(476,423)"/>
<path d="M0 0 C0.33 0 0.66 0 1 0 C1.2358396 5.77807024 0.86783046 10.51324804 -1 16 C-1.66 16 -2.32 16 -3 16 C-2.40984815 10.49191603 -1.43336231 5.35121931 0 0 Z " fill="#51B9E6" transform="translate(626,364)"/>
<path d="M0 0 C0.66 0.33 1.32 0.66 2 1 C1.67 1.99 1.34 2.98 1 4 C0.77820215 5.89212737 0.59385985 7.78884472 0.4375 9.6875 C0.31181641 11.17830078 0.31181641 11.17830078 0.18359375 12.69921875 C0.12300781 13.45847656 0.06242187 14.21773438 0 15 C-0.33 15 -0.66 15 -1 15 C-3.26837061 6.99090686 -3.26837061 6.99090686 -2.1875 3 C-1 1 -1 1 0 0 Z " fill="#E9F6FD" transform="translate(395,315)"/>
<path d="M0 0 C1.32 0.33 2.64 0.66 4 1 C1.525 5.455 1.525 5.455 -1 10 C-2.54578627 6.90842747 -1.60277633 4.31526981 -1 1 C-0.67 0.67 -0.34 0.34 0 0 Z " fill="#0E30AC" transform="translate(323,276)"/>
<path d="M0 0 C1.32 0.66 2.64 1.32 4 2 C1.03 6.95 1.03 6.95 -2 12 C-3.15957207 8.52128379 -2.77456651 7.65780355 -1.5625 4.3125 C-1.13130859 3.10013672 -1.13130859 3.10013672 -0.69140625 1.86328125 C-0.46324219 1.24839844 -0.23507812 0.63351563 0 0 Z " fill="#1B82E9" transform="translate(258,237)"/>
<path d="M0 0 C3.3 0.33 6.6 0.66 10 1 C10.66 2.65 11.32 4.3 12 6 C7.76570244 4.68938409 3.92592596 3.05643741 0 1 C0 0.67 0 0.34 0 0 Z " fill="#2185E6" transform="translate(301,507)"/>
<path d="M0 0 C1.07349791 4.29399165 0.79682816 5.19495213 -1 9 C-1.66 9 -2.32 9 -3 9 C-3.33 10.32 -3.66 11.64 -4 13 C-4.66 12.67 -5.32 12.34 -6 12 C-4.02 8.04 -2.04 4.08 0 0 Z " fill="#4FBCEC" transform="translate(610,418)"/>
<path d="M0 0 C0.33 0 0.66 0 1 0 C1 2.64 1 5.28 1 8 C0.34 8 -0.32 8 -1 8 C-1 9.65 -1 11.3 -1 13 C-1.99 13.33 -2.98 13.66 -4 14 C-3.52188823 12.22888156 -3.0424722 10.45811517 -2.5625 8.6875 C-2.29566406 7.70136719 -2.02882813 6.71523438 -1.75390625 5.69921875 C-1.21920575 3.78482474 -0.62855462 1.88566385 0 0 Z " fill="#D1F7FE" transform="translate(662,412)"/>
<path d="M0 0 C0 0.66 0 1.32 0 2 C-0.99 2 -1.98 2 -3 2 C-3 3.65 -3 5.3 -3 7 C-5.91517292 5.92598892 -7.77810176 5.22189824 -10 3 C-8.70990357 2.49596232 -7.41786211 1.99690074 -6.125 1.5 C-5.04605469 1.08234375 -5.04605469 1.08234375 -3.9453125 0.65625 C-2 0 -2 0 0 0 Z " fill="#1438B1" transform="translate(353,201)"/>
<path d="M0 0 C10.55808656 0.96355353 10.55808656 0.96355353 15 2 C15 2.33 15 2.66 15 3 C4.44191344 3.3690205 4.44191344 3.3690205 0 1 C0 0.67 0 0.34 0 0 Z " fill="#CEF3FF" transform="translate(346,525)"/>
<path d="M0 0 C-1.78953185 0.83790789 -3.58169695 1.67019396 -5.375 2.5 C-6.87160156 3.19609375 -6.87160156 3.19609375 -8.3984375 3.90625 C-11 5 -11 5 -13 5 C-13 4.34 -13 3.68 -13 3 C-12.01 3 -11.02 3 -10 3 C-10 2.34 -10 1.68 -10 1 C-3.375 -1.125 -3.375 -1.125 0 0 Z " fill="#1236AB" transform="translate(451,442)"/>
<path d="M0 0 C0.99 0.33 1.98 0.66 3 1 C0.61042731 4.24299151 -1.2047869 6.50902342 -5 8 C-5 6.35 -5 4.7 -5 3 C-3.35 3 -1.7 3 0 3 C0 2.01 0 1.02 0 0 Z " fill="#4BB9EF" transform="translate(577,413)"/>
<path d="M0 0 C0 0.33 0 0.66 0 1 C-2.10063576 1.69821417 -4.20565737 2.38324472 -6.3125 3.0625 C-7.48425781 3.44535156 -8.65601563 3.82820313 -9.86328125 4.22265625 C-13 5 -13 5 -16 4 C-10.4174808 0.67424388 -6.50313209 -0.46450943 0 0 Z " fill="#1F40A8" transform="translate(420,301)"/>
<path d="M0 0 C0 3.15084005 -0.45473667 4.33871316 -2 7 C-4.35953094 9.35953094 -5.77895617 9.49141413 -9 10 C-8.06409496 8.8944811 -7.12620142 7.79064547 -6.1875 6.6875 C-5.66542969 6.07261719 -5.14335937 5.45773438 -4.60546875 4.82421875 C-3.12827531 3.14575321 -1.59960869 1.56117966 0 0 Z " fill="#2548AE" transform="translate(306,228)"/>
<path d="M0 0 C0.33 1.32 0.66 2.64 1 4 C0.34 4 -0.32 4 -1 4 C-1.2475 5.27875 -1.495 6.5575 -1.75 7.875 C-2.70496485 11.79173989 -2.70496485 11.79173989 -5.125 13.5 C-5.74375 13.665 -6.3625 13.83 -7 14 C-5.23570801 9.02790438 -2.6060834 4.56561939 0 0 Z " fill="#1F86E2" transform="translate(222,212)"/>
<path d="M0 0 C0.66 0.33 1.32 0.66 2 1 C2 1.66 2 2.32 2 3 C1.05125 3.45375 0.1025 3.9075 -0.875 4.375 C-4.00313679 5.80238254 -4.00313679 5.80238254 -6 8 C-6 7.34 -6 6.68 -6 6 C-6.66 5.67 -7.32 5.34 -8 5 C-6.71475739 4.13619741 -5.42157581 3.28419631 -4.125 2.4375 C-3.04605469 1.72400391 -3.04605469 1.72400391 -1.9453125 0.99609375 C-1.30335938 0.66738281 -0.66140625 0.33867187 0 0 Z " fill="#D1F3FD" transform="translate(501,500)"/>
<path d="M0 0 C0.66 0.33 1.32 0.66 2 1 C2 1.66 2 2.32 2 3 C2.598125 3.12375 3.19625 3.2475 3.8125 3.375 C6 4 6 4 9 6 C8.67 6.99 8.34 7.98 8 9 C5.03 7.02 2.06 5.04 -1 3 C-0.67 2.01 -0.34 1.02 0 0 Z " fill="#DEEAFD" transform="translate(459,208)"/>
<path d="M0 0 C1.32 0.33 2.64 0.66 4 1 C0.04 2.65 -3.92 4.3 -8 6 C-7.67 4.68 -7.34 3.36 -7 2 C-6.030625 1.855625 -5.06125 1.71125 -4.0625 1.5625 C-1.13513227 1.32437659 -1.13513227 1.32437659 0 0 Z " fill="#1F83E8" transform="translate(476,511)"/>
<path d="M0 0 C4.23429756 1.31061591 8.07407404 2.94356259 12 5 C9.5332355 5.88336837 8.36140628 6.1312406 5.859375 5.22265625 C5.16328125 4.83980469 4.4671875 4.45695312 3.75 4.0625 C3.04359375 3.68222656 2.3371875 3.30195313 1.609375 2.91015625 C1.07828125 2.60980469 0.5471875 2.30945313 0 2 C0 1.34 0 0.68 0 0 Z " fill="#D0F5FE" transform="translate(299,507)"/>
<path d="M0 0 C0.66 0.33 1.32 0.66 2 1 C0.55746343 4.36591866 -1.33264727 6.51047079 -4 9 C-4.66 8.67 -5.32 8.34 -6 8 C-4.02 5.36 -2.04 2.72 0 0 Z " fill="#1D39B3" transform="translate(403,306)"/>
<path d="M0 0 C1.1351555 3.4054665 0.84899821 4.31723087 -0.25 7.625 C-0.62898438 8.81996094 -0.62898438 8.81996094 -1.015625 10.0390625 C-2 12 -2 12 -5 13 C-4.54554036 11.58208592 -4.08625056 10.16571954 -3.625 8.75 C-3.24214844 7.56664062 -3.24214844 7.56664062 -2.8515625 6.359375 C-2.04826333 4.13372042 -1.10288338 2.09068328 0 0 Z " fill="#2442AF" transform="translate(277,268)"/>
<path d="M0 0 C3.33773709 3.64116773 3.97864902 7.28607242 5 12 C2 11 2 11 0.8125 8.8125 C-0.07334979 5.74609689 -0.14770318 3.17561845 0 0 Z " fill="#D5F8FE" transform="translate(541,265)"/>
<path d="M0 0 C0.33 0 0.66 0 1 0 C1.34833144 4.87664009 0.41685712 7.77050005 -2 12 C-2.66 12 -3.32 12 -4 12 C-3.52309796 10.37433394 -3.04340334 8.74948689 -2.5625 7.125 C-2.29566406 6.22007812 -2.02882812 5.31515625 -1.75390625 4.3828125 C-1 2 -1 2 0 0 Z " fill="#C5EBFD" transform="translate(248,264)"/>
<path d="M0 0 C0 0.99 0 1.98 0 3 C1.98 3 3.96 3 6 3 C6 3.66 6 4.32 6 5 C1.94393835 4.53199289 -1.46588679 4.12046792 -5 2 C-2 0 -2 0 0 0 Z " fill="#2086E6" transform="translate(330,516)"/>
<path d="M0 0 C0.33 0 0.66 0 1 0 C1.33 3.96 1.66 7.92 2 12 C1.01 12.66 0.02 13.32 -1 14 C-1.08333357 9.1666528 -0.95261487 4.76307437 0 0 Z " fill="#C9F3FE" transform="translate(674,358)"/>
<path d="M0 0 C0.33 1.32 0.66 2.64 1 4 C0.34 4 -0.32 4 -1 4 C-1 5.65 -1 7.3 -1 9 C-2.98 9.99 -2.98 9.99 -5 11 C-3.55049545 7.2089881 -1.84827434 3.6125362 0 0 Z " fill="#2085E5" transform="translate(214,226)"/>
<path d="M0 0 C0.66 0.33 1.32 0.66 2 1 C-2.75 4 -2.75 4 -5 4 C-5 4.66 -5 5.32 -5 6 C-6.32 5.34 -7.64 4.68 -9 4 C-7.54618103 3.30300448 -6.08677047 2.61766134 -4.625 1.9375 C-3.40683594 1.36322266 -3.40683594 1.36322266 -2.1640625 0.77734375 C-1.44992187 0.52082031 -0.73578125 0.26429688 0 0 Z " fill="#C4ECFE" transform="translate(485,509)"/>
<path d="M0 0 C4.92307692 4.30769231 4.92307692 4.30769231 5.3125 7.8125 C5.209375 8.534375 5.10625 9.25625 5 10 C1.91910327 7.22719294 0.31224548 4.93673644 -1 1 C-0.67 0.67 -0.34 0.34 0 0 Z " fill="#D6F6FE" transform="translate(258,401)"/>
<path d="M0 0 C4 2 4 2 5.1875 4.4375 C5.455625 5.283125 5.72375 6.12875 6 7 C6.33 7.99 6.66 8.98 7 10 C6.01 10.495 6.01 10.495 5 11 C3.35 7.37 1.7 3.74 0 0 Z " fill="#1634AC" transform="translate(277,379)"/>
<path d="M0 0 C0.33 0.99 0.66 1.98 1 3 C0.67 3.66 0.34 4.32 0 5 C-0.66 5 -1.32 5 -2 5 C-2.33 6.32 -2.66 7.64 -3 9 C-3.99 8.67 -4.98 8.34 -6 8 C-4.02 5.36 -2.04 2.72 0 0 Z " fill="#1D39AF" transform="translate(462,372)"/>
<path d="M0 0 C0.33 0.66 0.66 1.32 1 2 C0.06553465 4.03144641 -0.93224776 6.03533587 -2 8 C-2.33 7.34 -2.66 6.68 -3 6 C-3.66 5.67 -4.32 5.34 -5 5 C-3.35 3.35 -1.7 1.7 0 0 Z M-5 8 C-4.01 8.495 -4.01 8.495 -3 9 C-3.99 9.495 -3.99 9.495 -5 10 C-5 9.34 -5 8.68 -5 8 Z " fill="#D7E8FA" transform="translate(338,264)"/>
<path d="M0 0 C-2.1875 2.0625 -2.1875 2.0625 -5 4 C-7.8125 3.75 -7.8125 3.75 -10 3 C-7.28464405 0.28464405 -3.67870689 -1.83935344 0 0 Z " fill="#248AE8" transform="translate(456,472)"/>
<path d="M0 0 C2.475 0.495 2.475 0.495 5 1 C4.67 3.97 4.34 6.94 4 10 C1.81024227 6.71536341 1.00193437 3.79303725 0 0 Z " fill="#DDFBFE" transform="translate(587,251)"/>
<path d="M0 0 C2.34914492 2.34914492 2.73140357 3.95679446 3.625 7.125 C3.88539063 8.03507813 4.14578125 8.94515625 4.4140625 9.8828125 C4.70410156 10.93082031 4.70410156 10.93082031 5 12 C2.69857565 10.21825212 1.19965609 8.83695835 0.51171875 5.953125 C0.27676898 3.9753389 0.13248542 1.98728128 0 0 Z " fill="#57C0E9" transform="translate(656,220)"/>
<path d="M0 0 C0 0.99 0 1.98 0 3 C-1.75 4.75 -1.75 4.75 -4 6 C-5.32 5.67 -6.64 5.34 -8 5 C-4.04 2.525 -4.04 2.525 0 0 Z " fill="#1A39AC" transform="translate(333,209)"/>
<path d="M0 0 C1 2 1 2 0.3125 4.5625 C-1 7 -1 7 -3.125 7.8125 C-3.74375 7.874375 -4.3625 7.93625 -5 8 C-1.125 1.125 -1.125 1.125 0 0 Z " fill="#1B87E5" transform="translate(228,204)"/>
<path d="M0 0 C0 3.64478912 -0.85802506 5.09303401 -3 8 C-5.1875 8.8125 -5.1875 8.8125 -7 9 C-5.44499019 5.18315774 -2.96404505 2.80804268 0 0 Z " fill="#2F8EE6" transform="translate(247,181)"/>
<path d="M0 0 C0.95465783 2.16967689 1.14401212 3.56328793 0.3984375 5.82421875 C-0.35870385 7.5684743 -1.17609198 9.28627131 -2 11 C-2.66 11 -3.32 11 -4 11 C-2.7874262 7.27566618 -1.49140021 3.62197194 0 0 Z " fill="#D7E6FB" transform="translate(514,375)"/>
<path d="M0 0 C0.66 0 1.32 0 2 0 C1.01 2.97 0.02 5.94 -1 9 C-1.99 9 -2.98 9 -4 9 C-2.80100302 5.9168649 -1.52299523 2.93720508 0 0 Z " fill="#1639AC" transform="translate(469,360)"/>
<path d="M0 0 C0.66 0 1.32 0 2 0 C2.66 2.97 3.32 5.94 4 9 C2.68 8.34 1.36 7.68 0 7 C0 4.69 0 2.38 0 0 Z " fill="#2A45B1" transform="translate(313,342)"/>
<path d="M0 0 C0.33 0 0.66 0 1 0 C1.75 3.1875 1.75 3.1875 2 7 C0.0625 9.9375 0.0625 9.9375 -2 12 C-1.85831863 10.56208484 -1.71148957 9.1246763 -1.5625 7.6875 C-1.48128906 6.88699219 -1.40007812 6.08648437 -1.31640625 5.26171875 C-1 3 -1 3 0 0 Z " fill="#C6ECFC" transform="translate(242,281)"/>
<path d="M0 0 C0.33 0 0.66 0 1 0 C1 2.97 1 5.94 1 9 C0.34 9 -0.32 9 -1 9 C-1.33 9.66 -1.66 10.32 -2 11 C-1.125 3.375 -1.125 3.375 0 0 Z " fill="#2F8EEB" transform="translate(198,263)"/>
<path d="M0 0 C0.99 0.33 1.98 0.66 3 1 C0.525 4.465 0.525 4.465 -2 8 C-2.66 6.68 -3.32 5.36 -4 4 C-3.01 4 -2.02 4 -1 4 C-0.67 2.68 -0.34 1.36 0 0 Z " fill="#1F85EC" transform="translate(268,225)"/>
<path d="M0 0 C4.21878192 -0.19622241 7.17010894 0.19769832 11 2 C9.4375 3.1875 9.4375 3.1875 7 4 C3.25 2.625 3.25 2.625 0 1 C0 0.67 0 0.34 0 0 Z " fill="#2C8EE7" transform="translate(313,513)"/>
<path d="M0 0 C2.64 1.98 5.28 3.96 8 6 C7.01 6.495 7.01 6.495 6 7 C3.96855359 6.06553465 1.96466413 5.06775224 0 4 C0 2.68 0 1.36 0 0 Z " fill="#2787E8" transform="translate(291,444)"/>
<path d="M0 0 C2.40072955 2.88087546 4.47291037 5.56404834 6 9 C4.68 8.67 3.36 8.34 2 8 C2 6.68 2 5.36 2 4 C1.34 4 0.68 4 0 4 C0 2.68 0 1.36 0 0 Z " fill="#1D85E4" transform="translate(255,400)"/>
<path d="M0 0 C2.475 0.99 2.475 0.99 5 2 C4.34 3.65 3.68 5.3 3 7 C1.25372522 4.38058783 0.61277612 2.96175123 0 0 Z " fill="#1133AE" transform="translate(504,384)"/>
<path d="M0 0 C0.66666667 2.66666667 1.33333333 5.33333333 2 8 C0.35 8.66 -1.3 9.32 -3 10 C-2.01 6.7 -1.02 3.4 0 0 Z " fill="#C7D6F4" transform="translate(518,364)"/>
<path d="M0 0 C0.66 0.33 1.32 0.66 2 1 C0.68 3.31 -0.64 5.62 -2 8 C-2.33 8 -2.66 8 -3 8 C-3.36923077 3.44615385 -3.36923077 3.44615385 -1.5 1.1875 C-1.005 0.795625 -0.51 0.40375 0 0 Z " fill="#D9E8FC" transform="translate(468,359)"/>
<path d="M0 0 C0.33 0.99 0.66 1.98 1 3 C-0.4375 5.1875 -0.4375 5.1875 -2 7 C-2.99 6.67 -3.98 6.34 -5 6 C-3.35 4.02 -1.7 2.04 0 0 Z " fill="#CDEFFE" transform="translate(277,218)"/>
<path d="M0 0 C-1 1.5 -1 1.5 -3 3 C-5.71846235 3.27345479 -8.25677199 3.13491285 -11 3 C-3.71428571 -1.85714286 -3.71428571 -1.85714286 0 0 Z " fill="#298CE8" transform="translate(334,129)"/>
<path d="M0 0 C0.99 0 1.98 0 3 0 C1.25 5.75 1.25 5.75 -1 8 C-0.67 5.36 -0.34 2.72 0 0 Z " fill="#4BB9EF" transform="translate(648,441)"/>
<path d="M0 0 C0.33 1.32 0.66 2.64 1 4 C-0.9375 6.25 -0.9375 6.25 -3 8 C-3.66 7.67 -4.32 7.34 -5 7 C-3.35 4.69 -1.7 2.38 0 0 Z " fill="#CCEEFE" transform="translate(266,232)"/>
<path d="M0 0 C0.66 0.33 1.32 0.66 2 1 C-1.5 5.875 -1.5 5.875 -6 7 C-4.02 4.69 -2.04 2.38 0 0 Z " fill="#50BCE8" transform="translate(546,229)"/>
</svg>
