<svg width="96" height="42" viewBox="0 0 96 42" fill="none" xmlns="http://www.w3.org/2000/svg">
<path d="M13.804 0.0201156C14.0925 -0.0225237 14.3973 -0.00192268 14.6628 0.125995C15.0885 0.314279 15.4451 0.69468 15.5315 1.16036C15.5915 1.54124 15.4778 1.94416 15.232 2.24119C15.1639 2.32599 15.0775 2.39307 15.0016 2.4702C16.3317 2.5986 17.6843 2.90905 18.8147 3.64973C18.9294 3.71776 19.0254 3.81502 19.1445 3.8749C20.2298 3.99659 21.3385 4.21506 22.2837 4.78806C22.7128 5.05491 23.0992 5.40705 23.3541 5.84733C23.596 6.26031 23.7179 6.7418 23.6953 7.21994C23.7126 7.5874 23.6113 7.95151 23.4477 8.27826C23.2173 8.74921 22.8525 9.14446 22.4353 9.45683C22.0384 9.75099 21.5905 9.97521 21.1211 10.1276C21.0006 10.1712 20.8734 10.1946 20.7568 10.2483C21.2065 10.2948 21.6635 10.3523 22.0854 10.5219C22.1185 10.6114 22.1277 10.7082 22.1459 10.8016C22.2496 11.3631 22.3537 11.9246 22.4651 12.4847C20.2211 12.1977 17.9651 11.9951 15.7029 11.9519C15.1783 11.9179 14.6517 11.9337 14.1261 11.9299C13.7364 11.9328 13.3452 11.9208 12.9564 11.9505C12.1192 11.9539 11.285 12.0128 10.4493 12.0497C9.81671 12.1038 9.18263 12.1441 8.55096 12.2068C7.61544 12.2983 6.68089 12.4023 5.75065 12.5388C5.70553 12.5436 5.66089 12.5427 5.61626 12.5422C5.76649 11.8772 5.87881 11.2041 6.00841 10.5353C6.16345 10.4591 6.34153 10.4347 6.50857 10.392C6.81529 10.3211 7.1292 10.2919 7.4388 10.243C6.78841 10.0911 6.16057 9.81231 5.63066 9.40125C5.09498 8.98444 4.65338 8.41432 4.49018 7.74742C4.41818 7.4911 4.4441 7.22281 4.44122 6.95979C4.47194 6.3523 4.74698 5.76685 5.16986 5.33231C5.71897 4.75979 6.46537 4.42203 7.218 4.20356C7.7964 4.03588 8.39304 3.93862 8.99111 3.87443C9.04871 3.84855 9.09479 3.80448 9.14615 3.76902C9.90311 3.2219 10.7954 2.89468 11.7007 2.68819C12.173 2.58758 12.652 2.51524 13.133 2.47068C12.8997 2.27329 12.7053 2.01842 12.6352 1.71659C12.5407 1.38937 12.5839 1.02382 12.7653 0.733965C12.9933 0.368896 13.3797 0.103957 13.804 0.0201156ZM10.8905 4.5121C10.4167 4.85657 10.0044 5.30979 9.79223 5.86219C9.68039 6.12569 9.63527 6.41123 9.62279 6.69533C9.62375 7.34786 9.91031 7.98074 10.3581 8.44881C10.7954 8.92551 11.3705 9.25513 11.9729 9.47934C12.4288 9.63936 12.9055 9.74141 13.3879 9.77495C12.9636 9.13056 12.8148 8.35347 12.7255 7.59986C12.6732 7.05848 12.664 6.51232 12.7034 5.96902C12.7682 5.17469 12.9088 4.36214 13.2986 3.65596C12.4428 3.7374 11.5946 4.01336 10.8905 4.5121ZM14.837 3.65644C15.1619 4.23997 15.3074 4.90256 15.3909 5.5594C15.4048 5.74481 15.4399 5.92878 15.436 6.11563C15.4336 6.56166 15.4471 7.00866 15.4255 7.45421C15.3803 7.81881 15.3405 8.18531 15.2493 8.54128C15.1437 8.97294 14.9978 9.40221 14.7463 9.77255C15.1807 9.75674 15.6079 9.65565 16.0211 9.5263C16.6211 9.32939 17.1904 9.01941 17.6479 8.58152C18.0088 8.2361 18.293 7.803 18.4254 7.31911C18.5282 6.94638 18.5392 6.54921 18.4422 6.17408C18.3021 5.58814 17.9325 5.07839 17.476 4.69368C16.7373 4.07708 15.7874 3.74794 14.837 3.65644ZM7.21464 5.24703C6.74137 5.46885 6.31417 5.82577 6.08905 6.30487C5.88553 6.74084 5.83081 7.24341 5.93065 7.7134C6.02761 8.18579 6.30649 8.61075 6.68137 8.91066C7.17816 9.3107 7.80168 9.52055 8.42568 9.61732C8.96807 9.68967 9.52151 9.70644 10.0634 9.6202C9.71735 9.47264 9.37703 9.30687 9.06503 9.09463C8.51735 8.731 8.04312 8.2222 7.82472 7.59363C7.50936 6.69964 7.73112 5.66624 8.31048 4.92843C7.93128 4.96963 7.5612 5.08797 7.21464 5.24703ZM19.8242 4.92795C20.223 5.44777 20.4587 6.0979 20.4515 6.75474C20.4602 7.27935 20.2821 7.80012 19.9797 8.22747C19.8246 8.45696 19.6211 8.64716 19.4214 8.83736C19.0173 9.16266 18.5589 9.41467 18.0813 9.61589C18.2368 9.66667 18.4024 9.64176 18.5622 9.66811C18.9218 9.69829 19.2822 9.66619 19.6394 9.62643C20.1707 9.54163 20.704 9.40173 21.1638 9.1138C21.6121 8.84119 21.987 8.4263 22.1473 7.92133C22.2726 7.52033 22.287 7.08388 22.1761 6.67808C22.0648 6.21576 21.7739 5.80709 21.3904 5.52874C20.9334 5.1972 20.3838 4.99886 19.8242 4.92795Z" fill="#D5B527"/>
<path d="M14.1789 13.4342C14.344 13.4323 14.5336 13.428 14.7093 13.4299C15.293 13.4429 15.8781 13.4227 16.4608 13.462C17.727 13.4826 18.9909 13.5665 20.2528 13.6642C22.047 13.8118 23.8379 14.0211 25.6158 14.3076C26.2095 17.4538 26.738 20.6115 27.2809 23.7669C27.5828 25.5625 27.8881 27.3577 28.1876 29.1538C28.2505 29.5217 28.3455 29.8887 28.3369 30.2653C28.3345 30.4588 28.3426 30.6538 28.3273 30.8474C28.2543 31.3883 28.0758 31.921 27.7676 32.3747C27.4359 32.8601 27.002 33.2658 26.5355 33.6199C25.6931 34.2427 24.8271 34.8325 23.9675 35.4313C21.1614 37.3698 18.341 39.2876 15.5186 41.203C15.1341 41.4627 14.7511 41.7242 14.3642 41.9801C14.2783 42.0385 14.1943 41.9537 14.1242 41.9106C12.1207 40.5955 10.1258 39.267 8.13286 37.937C6.26184 36.6803 4.38649 35.4299 2.5361 34.144C2.11802 33.847 1.68843 33.5619 1.31211 33.2117C0.977553 32.9094 0.674675 32.5664 0.446677 32.1759C0.138039 31.6326 -0.0251602 31.0045 0.00315961 30.3803C-0.0179602 29.9251 0.095319 29.482 0.174038 29.0378C1.07355 24.1602 1.97067 19.283 2.88362 14.4078C2.98826 14.3747 3.09818 14.367 3.20618 14.3498C3.81433 14.2405 4.42537 14.1529 5.03688 14.0642L5.04888 14.0614C5.04552 14.0858 5.03928 14.1347 5.03592 14.1586C4.56121 16.7179 4.11625 19.2825 3.67273 21.8471C3.19994 24.5847 2.7377 27.3236 2.26922 30.0621C2.19722 30.5374 2.28122 31.0563 2.58602 31.44C2.94218 31.9067 3.43658 32.2382 3.91321 32.5697C4.46377 32.9516 5.02249 33.3229 5.58024 33.6946C7.48007 34.9575 9.39045 36.2051 11.298 37.4565C12.256 38.0798 13.2074 38.7127 14.1679 39.3321C14.1765 39.2813 14.1861 39.2306 14.189 39.1793C14.1875 31.052 14.1885 22.9241 14.1885 14.7963C14.1827 14.3469 14.1995 13.8966 14.1794 13.4476L14.1789 13.4342ZM20.523 17.1041C20.4064 17.1779 20.4208 17.3503 20.5182 17.4347C20.3214 17.4653 20.1174 17.4998 19.9475 17.6095C19.9077 17.633 19.8693 17.6651 19.8208 17.6666C19.6576 17.6872 19.4905 17.7264 19.3537 17.8208C19.2381 17.8989 19.1531 18.0326 19.1627 18.1758C19.1565 18.3521 19.2937 18.4978 19.4401 18.5783C19.5304 18.6367 19.6413 18.6434 19.7382 18.6865C19.7406 18.7464 19.744 18.8068 19.7483 18.8672C19.9187 18.8638 20.0853 18.8188 20.2552 18.8068C20.6953 18.779 21.1408 18.79 21.5728 18.8844C21.5886 18.8054 21.5555 18.6664 21.6678 18.6559C21.8632 18.6166 22.06 18.4997 22.1387 18.309C22.2092 18.1423 22.1377 17.942 21.9942 17.8385C21.8536 17.7355 21.6798 17.6872 21.508 17.668C21.4518 17.6656 21.4077 17.6282 21.3611 17.6028C21.1945 17.5041 21.003 17.4591 20.8125 17.4375C20.8609 17.3733 20.9037 17.2962 20.8811 17.2133C20.835 17.0739 20.6368 16.9973 20.523 17.1041ZM22.3614 18.9682C22.73 19.3046 22.9014 19.811 22.9129 20.3001C22.9542 20.5718 22.9024 20.8429 22.9028 21.1151C22.8606 21.5266 22.7872 21.9343 22.7128 22.3411C22.6451 22.7272 22.5688 23.1138 22.5568 23.5062C22.5788 24.0519 22.7953 24.5679 23.068 25.0341C23.3185 25.4863 23.6372 25.8974 23.8878 26.3501C23.9713 26.5154 24.0793 26.6956 24.0265 26.8881C23.979 26.9969 23.8931 27.1306 23.7558 27.1157C23.5825 27.1363 23.4539 26.9955 23.3459 26.8819C23.1025 26.5988 22.9201 26.2706 22.7502 25.94C22.5457 25.47 22.1603 25.1169 21.8065 24.7595C21.6006 24.554 21.3942 24.3499 21.1821 24.1511C21.1629 24.129 21.1283 24.1089 21.1432 24.0759C21.5205 23.7611 21.7581 23.2959 21.8334 22.8144C21.8464 22.7555 21.8301 22.686 21.8771 22.6395C21.9241 22.6798 21.9644 22.7751 22.0427 22.7349C22.0585 22.5672 22.0403 22.3976 22.0504 22.229C22.0499 22.4034 22.0609 22.5792 22.0484 22.7531C22.034 22.7555 22.0048 22.7617 21.9899 22.7646C22.0024 22.7751 22.0268 22.7972 22.0393 22.8082C22.1075 22.8111 22.071 22.732 22.0777 22.6922C22.0585 22.388 22.1032 22.0862 22.1176 21.7829C22.1656 21.5338 22.0979 21.2871 22.0696 21.0413C22.1569 21.0442 22.2443 21.0442 22.3321 21.0408C22.3038 20.5176 22.2246 19.9614 21.8992 19.5321C21.6788 19.2337 21.3208 19.0583 20.956 19.0186C20.4582 18.9615 19.9609 19.0674 19.4809 19.1877C19.4089 19.1977 19.407 19.2792 19.3883 19.3338C19.5097 19.363 19.6465 19.3228 19.7603 19.3745C19.671 19.4143 19.5745 19.4349 19.4848 19.4732C19.4449 19.4871 19.4358 19.5345 19.4325 19.5714C19.4301 19.8177 19.4958 20.0697 19.6509 20.2656C19.7406 20.1636 19.7651 20.0026 19.9029 19.9437C19.9701 19.8996 20.032 19.9715 20.0728 20.0175C20.2403 20.2014 20.2485 20.4736 20.1995 20.7045C20.1784 20.8252 20.0238 20.8305 19.9317 20.7979C19.8491 20.7716 19.8083 20.6949 19.7771 20.6206C19.648 20.957 19.7085 21.3877 19.9801 21.6392C19.9969 21.5276 19.996 21.4035 20.0728 21.312C20.1448 21.2118 20.2749 21.185 20.391 21.1884C20.392 21.4188 20.2945 21.6727 20.0833 21.7882C19.8693 21.8993 19.6216 21.9046 19.3936 21.9722C19.0945 22.0503 18.8353 22.24 18.6314 22.4675C18.3242 22.8029 18.1091 23.2073 17.8288 23.5642C17.644 23.8028 17.4146 24.0356 17.1146 24.1166C17.1232 24.2201 17.1798 24.3097 17.2326 24.3964C17.3651 24.6024 17.5586 24.7638 17.7726 24.8807C17.7669 24.9708 17.7006 25.0374 17.6565 25.1112C17.4765 25.3637 17.2931 25.6185 17.0574 25.8226C17.0003 25.8734 16.9336 25.917 16.8544 25.918C16.7723 25.8174 16.7042 25.6842 16.5746 25.6406C16.4018 25.6238 16.2381 25.7033 16.0725 25.7417C16.0475 25.792 16.0259 25.8432 16.0067 25.8964C16.0672 25.9185 16.1349 25.9223 16.192 25.9539C16.1973 26.044 16.1896 26.1341 16.1843 26.2246C16.3216 26.2591 16.4656 26.2648 16.6005 26.3123C16.601 26.3314 16.6024 26.3693 16.6034 26.388C16.5054 26.3746 16.4094 26.3516 16.3139 26.329C16.2482 26.342 16.1685 26.3439 16.1315 26.4095C16.0197 26.5763 15.8997 26.7674 15.9251 26.9768C15.9731 26.9581 16.0111 26.9222 16.0543 26.8953C16.1378 26.891 16.157 26.9916 16.1642 27.0553C16.1973 27.0716 16.2414 27.1224 16.2755 27.0769C16.3869 26.9849 16.4829 26.8757 16.5914 26.7808C16.6379 26.7569 16.6557 26.8177 16.6595 26.8522C16.5707 26.9567 16.4699 27.0501 16.3778 27.1512C16.3586 27.1737 16.3326 27.1976 16.3379 27.2312C16.3384 27.4286 16.2813 27.6274 16.335 27.8224C16.4099 27.7687 16.4627 27.6777 16.5482 27.6442C16.6168 27.6681 16.6744 27.7213 16.7502 27.7318C16.9696 27.6758 17.0584 27.4415 17.1693 27.2685C17.2682 27.339 17.3858 27.3701 17.5043 27.3864C17.5149 27.4463 17.5226 27.5067 17.5331 27.567C17.5408 27.568 17.5557 27.5709 17.5634 27.5718C17.667 27.4669 17.7342 27.3227 17.7318 27.1737C17.7309 26.9883 17.7026 26.8019 17.7261 26.6165C17.753 26.4584 17.8562 26.33 17.9618 26.2155C18.0256 26.2423 18.0861 26.2773 18.1523 26.2998C18.2944 26.3362 18.4456 26.3123 18.5781 26.2524C18.6798 26.2203 18.7475 26.1168 18.7801 26.0234C18.6333 25.9721 18.4706 25.8332 18.5138 25.6607C18.5387 25.5457 18.6333 25.4504 18.7494 25.4255C18.939 25.3843 19.1421 25.4063 19.3197 25.4844C19.8765 25.722 20.2345 26.2308 20.6473 26.6476C20.6805 26.8599 20.6243 27.0774 20.6272 27.292C20.6161 27.7064 20.5993 28.1324 20.7227 28.5329C20.8048 28.8189 21.016 29.0565 21.0515 29.3574C21.0765 29.4973 21.0472 29.6396 21.0587 29.7804C21.148 29.7493 21.2488 29.733 21.3193 29.665C21.3822 29.6084 21.4216 29.5327 21.4614 29.4594C21.5454 29.4638 21.6294 29.4652 21.7129 29.48C21.7004 29.5212 21.687 29.562 21.6664 29.5998C21.507 29.8906 21.3481 30.1853 21.1379 30.4435C21.0304 30.5786 20.908 30.7084 20.752 30.787C20.6176 30.8574 20.4453 30.8632 20.3123 30.7875C20.1491 30.7041 20.0104 30.5523 19.816 30.5489C19.7046 30.5427 19.6465 30.6524 19.5721 30.7147C19.5078 30.7841 19.4065 30.7698 19.3235 30.7937C19.2515 30.8325 19.1987 30.9188 19.2208 31.0016C19.288 31.0031 19.3576 31.0021 19.4209 31.0294C19.4325 31.1018 19.4416 31.177 19.4709 31.246C19.5309 31.2374 19.5568 31.1588 19.6014 31.1214C19.6686 31.0587 19.7113 30.9537 19.8097 30.937C19.7939 30.9729 19.7723 31.0074 19.7454 31.0371C19.6235 31.1727 19.5405 31.3361 19.4469 31.4913C19.3773 31.5919 19.407 31.7198 19.4161 31.8334C19.4262 31.876 19.4118 31.9383 19.4661 31.9565C19.5001 31.9009 19.5299 31.8429 19.5669 31.7893C19.6893 31.7351 19.7017 31.898 19.792 31.9368C19.876 31.738 19.8697 31.5167 19.9302 31.3111C19.9446 31.3035 19.9744 31.2877 19.9893 31.28C19.9883 31.3164 19.9849 31.3533 19.9782 31.3902C19.8885 31.6743 19.8467 31.9828 19.9245 32.2751C19.9293 32.3187 19.9638 32.3469 19.9931 32.3766C20.0315 32.3038 20.0406 32.2051 20.1237 32.1668C20.1837 32.1227 20.2619 32.1357 20.332 32.1309C20.3272 32.0667 20.3747 31.9819 20.3243 31.9311L20.3526 31.9354C20.3526 31.8444 20.3454 31.7529 20.355 31.6623C20.3709 31.5957 20.4126 31.5392 20.4515 31.4841C20.4491 31.4999 20.4443 31.531 20.4424 31.5469C20.3517 31.8362 20.3781 32.1515 20.4563 32.4413C20.4952 32.4672 20.535 32.4931 20.5744 32.5194C20.5984 32.4289 20.6224 32.3393 20.6425 32.2482C20.7942 32.2171 20.9473 32.1984 21.1 32.1716C21.1576 32.1682 21.1921 32.117 21.2253 32.0767C21.3678 31.8904 21.399 31.6508 21.4945 31.4419C21.5449 31.3241 21.6155 31.1947 21.7422 31.1478C21.8468 31.1099 21.9169 31.2038 21.9803 31.2685C22.047 31.1051 22.0489 30.9274 22.082 30.7564C22.1204 30.4574 22.3076 30.2107 22.4584 29.9591C22.6163 29.7153 22.7387 29.4436 22.7732 29.1533C22.7872 28.9334 22.7924 28.7015 22.7084 28.4936C22.6264 28.6091 22.563 28.7365 22.4771 28.8496C22.2198 28.8606 22.0427 28.6124 21.9995 28.3824C21.9371 27.9225 21.9899 27.4195 22.2731 27.0367C22.3307 26.9643 22.4075 26.8728 22.5112 26.8915C22.6873 27.3696 23.1606 27.7237 23.668 27.7682C23.9627 27.7984 24.2752 27.6734 24.4451 27.4262C24.5406 27.281 24.615 27.1152 24.6222 26.9394C24.6673 26.7569 24.6011 26.571 24.5243 26.4071C24.4196 26.1757 24.2704 25.9678 24.148 25.7465C24.2276 25.3685 24.4105 25.0206 24.6044 24.6891C24.3035 24.795 24.0697 25.0432 23.9118 25.3134C23.9224 25.1442 23.9948 24.9852 24.0524 24.8276C24.1326 24.6081 24.2598 24.4108 24.3731 24.2081C24.088 24.2953 23.8883 24.5358 23.7049 24.7571C23.8052 24.3681 23.9622 23.9935 24.1888 23.6605C24.1532 23.6672 24.1163 23.6696 24.0841 23.6868C23.7971 23.8368 23.5782 24.0883 23.428 24.3715C23.2264 23.821 23.2988 23.2245 23.3708 22.6573C23.4702 21.8629 23.6147 21.0739 23.824 20.3011C23.919 19.9609 24.0961 19.6256 24.4 19.4287C23.9267 19.351 23.4889 19.823 23.5336 20.2858C23.5292 20.2862 23.5206 20.2877 23.5163 20.2882C23.5139 20.1238 23.4616 19.9652 23.402 19.8143C23.2302 19.3817 22.8222 19.0463 22.3614 18.9682ZM18.7514 20.4041C18.6976 20.5488 18.6933 20.7304 18.8022 20.8511C18.9054 20.957 19.072 20.9527 19.2021 20.9047C19.4233 20.8252 19.5697 20.6297 19.7632 20.5061C19.8582 20.4424 19.9691 20.4132 20.0809 20.394C19.972 20.3432 19.8395 20.3341 19.7272 20.3787C19.5357 20.4525 19.3475 20.5411 19.144 20.578C19.0609 20.5866 18.9568 20.5962 18.9016 20.5191C18.8603 20.3955 18.9088 20.2699 18.9496 20.154C18.8421 20.1928 18.7893 20.304 18.7514 20.4041ZM17.1842 20.6551C17.1928 20.8118 17.0733 20.9359 17.0718 21.0892C17.0877 21.2166 17.1026 21.3446 17.0968 21.4734C16.971 21.3537 17.0286 21.1467 16.9072 21.0221C16.7738 20.887 16.6005 20.7859 16.4152 20.7414C16.4493 20.9134 16.3864 21.1084 16.492 21.2626C16.5549 21.3565 16.599 21.4638 16.6739 21.5501C16.6763 21.5942 16.6787 21.6392 16.6811 21.6842C16.6667 21.6847 16.637 21.6857 16.6221 21.6861C16.5347 21.5841 16.4522 21.4773 16.361 21.379C16.1978 21.3062 16.0163 21.3786 15.8575 21.4294C15.9347 21.5156 16.0173 21.5985 16.0773 21.6986C16.2448 21.9496 16.421 22.2275 16.397 22.5428C16.4042 22.7459 16.2746 22.9208 16.1248 23.0444C16.2002 23.1527 16.3451 23.1493 16.4627 23.1598C16.5213 23.1584 16.5904 23.1689 16.6408 23.1325C16.7186 23.042 16.7642 22.928 16.8453 22.8403C16.8558 22.8412 16.877 22.8436 16.8875 22.8446C17.1146 23.1119 17.319 23.3979 17.5422 23.6686C17.7386 23.5048 17.8571 23.2719 17.9992 23.064C18.0251 23.019 18.0659 22.9783 18.0741 22.9256C17.9742 22.5222 17.5091 22.342 17.4179 21.9343C17.3603 21.5946 17.5077 21.2516 17.4256 20.9138C17.38 20.8046 17.3003 20.6939 17.1842 20.6551ZM19.5419 26.0378C19.3278 26.1106 19.1992 26.3104 19.0571 26.4723C18.903 26.662 18.6808 26.8273 18.424 26.8153C18.4394 26.9586 18.483 27.1061 18.579 27.2173C18.6477 27.2959 18.7475 27.3351 18.8483 27.3553C18.8589 27.4108 18.8665 27.4664 18.8704 27.5234C18.891 27.9273 19.0509 28.3259 19.3302 28.6215C19.3542 28.6574 19.4272 28.7077 19.3825 28.7528C19.1982 28.7801 19.011 28.7748 18.8253 28.7763C18.6784 28.7753 18.5219 28.783 18.389 28.7092C18.1494 28.5885 18.0347 28.3297 17.8398 28.1587C17.7002 28.0389 17.5125 27.9834 17.3301 28.0107C17.3603 28.0638 17.3958 28.1141 17.4184 28.1716C17.4338 28.2521 17.3862 28.3249 17.3675 28.4011C17.4813 28.4351 17.595 28.4696 17.7112 28.4989C17.7107 28.5314 17.7107 28.5645 17.7112 28.598C17.5389 28.5583 17.3445 28.5396 17.1837 28.6287C17.0766 28.6828 17.0109 28.7897 16.9749 28.9003C17.0397 28.9032 17.104 28.9061 17.1693 28.909C17.224 29.0038 17.2614 29.1068 17.2763 29.2156C17.3963 29.0953 17.4942 28.955 17.6205 28.8414C17.6162 28.9837 17.5374 29.1068 17.4568 29.2189C17.3459 29.3708 17.236 29.5447 17.2523 29.7416C17.3315 29.7234 17.3925 29.6683 17.4621 29.63C17.5178 29.6952 17.5773 29.757 17.6382 29.8168C17.7318 29.6966 17.7405 29.5385 17.7875 29.3981C17.8048 29.3981 17.8408 29.3981 17.8581 29.3981C17.8422 29.5562 17.7779 29.7047 17.7573 29.8624C17.7189 30.019 17.7203 30.2183 17.8624 30.3242C17.8864 30.248 17.9094 30.1723 17.9344 30.0971C18.003 30.088 18.0736 30.0904 18.1394 30.1163C18.3011 30.1685 18.4461 30.0344 18.5286 29.9098C18.605 29.79 18.7274 29.6947 18.8747 29.6894C18.9155 29.7402 18.9635 29.7886 18.9846 29.8523C18.9957 29.9179 19.0024 29.985 19.0206 30.0497C19.1761 29.9917 19.2587 29.8398 19.3907 29.7507C19.6201 29.63 19.887 29.6305 20.1395 29.6219C20.3742 29.6094 20.5686 29.4527 20.7049 29.2721C20.4496 29.0321 20.236 28.747 20.0723 28.4375C19.96 28.2076 19.8577 27.9503 19.9038 27.6901C19.9413 27.5809 19.9734 27.4425 20.0934 27.396C20.2307 27.3227 20.3805 27.4113 20.4976 27.4846C20.5149 27.328 20.5331 27.1703 20.5293 27.0127C20.4385 26.8498 20.2417 26.7708 20.1625 26.5978C20.1189 26.501 20.1649 26.3932 20.1376 26.295C20.128 26.3837 20.1309 26.4733 20.1232 26.5624C20.115 26.4627 20.1208 26.3631 20.1376 26.2648C19.972 26.1317 19.7656 25.9894 19.5419 26.0378Z" fill="#D5B527"/>
<path d="M20.0117 17.9252C20.1288 17.7686 20.3265 17.6799 20.5205 17.6804C20.4768 17.8414 20.4302 18.0052 20.4499 18.1744C20.4489 18.2956 20.5205 18.4048 20.5109 18.5265C20.3405 18.5083 20.1667 18.4479 20.0496 18.3176C19.9488 18.216 19.9425 18.045 20.0117 17.9252Z" fill="#D5B527"/>
<path d="M20.7849 17.6853C20.9669 17.6719 21.1536 17.7519 21.2755 17.886C21.3624 17.9742 21.3758 18.115 21.3331 18.2267C21.2246 18.4322 20.9769 18.5165 20.7585 18.5371C20.9107 18.2818 20.915 17.9502 20.7849 17.6853Z" fill="#D5B527"/>
<path d="M19.3954 18.0785C19.441 17.941 19.596 17.8773 19.7285 17.8582C19.6944 17.9497 19.6402 18.0402 19.6522 18.1418C19.6618 18.2759 19.7635 18.3804 19.873 18.4484C19.8715 18.4676 19.8686 18.5059 19.8672 18.5246C19.7232 18.516 19.5624 18.4997 19.4582 18.3876C19.3709 18.3104 19.3747 18.183 19.3954 18.0785Z" fill="#D5B527"/>
<path d="M21.5972 17.8577C21.733 17.8749 21.8818 17.9444 21.9298 18.0828C21.9562 18.1911 21.9447 18.3238 21.8492 18.3966C21.7105 18.5279 21.507 18.5183 21.3298 18.5121C21.4527 18.4393 21.5977 18.3722 21.6514 18.2285C21.7052 18.1025 21.6481 17.9736 21.5972 17.8577Z" fill="#D5B527"/>
<path d="M8.5892 18.0452C8.90264 18.0485 9.21608 18.0461 9.52952 18.0461C9.53528 18.325 9.52712 18.6038 9.53384 18.8831C9.7748 18.8869 10.0158 18.8783 10.2567 18.8869C10.2726 18.8553 10.2802 18.8218 10.2793 18.7868C10.2788 18.5578 10.2764 18.3288 10.2812 18.0998C10.5783 18.0988 10.8749 18.1012 11.1721 18.0983C11.1778 18.772 11.1764 19.446 11.173 20.1196C9.746 20.1172 8.31945 20.1187 6.8929 20.1187C6.89242 19.4456 6.88954 18.772 6.89434 18.0988C7.19145 18.0998 7.48857 18.1012 7.78569 18.0979C7.79145 18.2684 7.78809 18.439 7.78857 18.6095C7.79049 18.702 7.77801 18.7978 7.80873 18.8874C8.05929 18.8783 8.31033 18.886 8.56088 18.8826C8.61032 18.6067 8.56712 18.324 8.5892 18.0452Z" fill="#D5B527"/>
<path d="M20.269 19.2898C20.4601 19.2893 20.654 19.2692 20.8426 19.3065C20.8705 19.3195 20.93 19.3137 20.9209 19.3616C20.7639 19.4388 20.5945 19.4848 20.4341 19.5538C20.3809 19.5772 20.3252 19.593 20.2676 19.6002C20.27 19.4963 20.27 19.3928 20.269 19.2898Z" fill="#D5B527"/>
<path d="M7.59761 20.4597C8.55472 20.4611 9.51231 20.4626 10.4694 20.4587C10.5237 20.6935 10.5289 20.9369 10.5693 21.175C10.8467 23.4109 11.1251 25.6473 11.4045 27.8833C11.4189 28.0715 11.4649 28.2574 11.4649 28.4472C9.84495 28.4424 8.22448 28.4467 6.60449 28.4448C6.62897 28.0735 6.70049 27.707 6.73361 27.3366C7.01969 25.059 7.30049 22.78 7.58656 20.5023C7.58848 20.4918 7.59473 20.4702 7.59761 20.4597ZM8.35024 22.7823C8.34208 22.9381 8.32624 23.1009 8.36848 23.2538C8.81248 23.2538 9.25695 23.2504 9.70095 23.2552C9.73887 23.0995 9.72015 22.9366 9.71919 22.7785C9.71055 22.7708 9.69327 22.7555 9.68463 22.7479C9.24927 22.7431 8.81344 22.7426 8.37808 22.7483C8.37136 22.757 8.35696 22.7737 8.35024 22.7823ZM8.36608 24.3413C8.37088 24.5013 8.36656 24.6618 8.3704 24.8218C8.8192 24.8214 9.26799 24.8223 9.71631 24.8214C9.73071 24.6618 9.71727 24.5023 9.72591 24.3428C9.68751 24.3231 9.64479 24.3145 9.60207 24.3174C9.23247 24.3183 8.86336 24.3183 8.49376 24.3174C8.4496 24.314 8.4064 24.3245 8.36608 24.3413ZM8.34208 25.9171C8.3536 26.0776 8.32096 26.2428 8.368 26.3995C8.812 26.4005 9.25551 26.3981 9.69951 26.4009C9.74511 26.2438 9.71055 26.079 9.72399 25.9185C9.68559 25.8979 9.64383 25.8874 9.60063 25.8912C9.23103 25.8912 8.86144 25.8917 8.49136 25.8912C8.44048 25.8897 8.39152 25.9046 8.34208 25.9171Z" fill="#D5B527"/>
<path d="M6.04955 28.8155C8.0377 28.8165 10.0258 28.8131 12.014 28.8174C12.0159 29.4906 12.014 30.1637 12.015 30.8373C11.485 30.8416 10.9551 30.8368 10.4247 30.8397C10.4146 30.6639 10.4391 30.4861 10.4007 30.3132C9.48873 30.3161 8.57721 30.3122 7.66522 30.3151C7.6609 30.489 7.6633 30.6629 7.66378 30.8373C7.1257 30.8416 6.58763 30.8378 6.04907 30.8392C6.05003 30.1642 6.04955 29.4901 6.04955 28.8155Z" fill="#D5B527"/>
<path d="M35.8225 9.02537C39.0034 9.02489 42.1848 9.02537 45.3657 9.02537C47.2685 9.01196 49.1803 9.08813 51.0575 9.41727C52.4606 9.67119 53.8655 10.0616 55.0929 10.8057C55.678 11.1631 56.2142 11.6082 56.6428 12.1447C57.0297 12.6219 57.3263 13.17 57.5265 13.7497C57.7885 14.5105 57.8821 15.3207 57.8716 16.1222C57.8567 16.7924 57.7593 17.4651 57.5298 18.0975C57.2855 18.7879 56.8809 19.4184 56.3668 19.9401C55.4606 20.8484 54.2711 21.4152 53.0577 21.7923C52.7659 21.889 52.4644 21.9508 52.1716 22.0404C53.5386 22.2982 54.9052 22.7045 56.0812 23.4662C56.6462 23.8366 57.1588 24.2946 57.5577 24.8412C57.9244 25.3332 58.1927 25.8943 58.3708 26.4802C58.5945 27.2242 58.6713 28.0061 58.6559 28.7808C58.6396 29.636 58.5133 30.496 58.2162 31.3008C57.8289 32.3817 57.1026 33.3317 56.1753 34.0082C55.0977 34.7992 53.8132 35.2558 52.5153 35.5351C51.5126 35.7478 50.4897 35.8609 49.4664 35.9092C48.7108 35.9548 47.9539 35.9342 47.1979 35.9385C45.1574 35.9385 43.1165 35.9385 41.076 35.9385C39.3235 35.9342 37.5711 35.9476 35.8191 35.9318C35.8268 26.9631 35.8191 17.994 35.8225 9.02537ZM43.0589 13.916C43.0565 15.9195 43.0594 17.9236 43.0574 19.9267C43.6056 19.9276 44.1542 19.9271 44.7029 19.9276C45.6566 19.9166 46.6161 19.9722 47.5627 19.8285C48.2659 19.7226 48.984 19.541 49.5667 19.1151C50.0668 18.7567 50.3971 18.189 50.5031 17.5873C50.6279 16.9017 50.5862 16.1572 50.2449 15.5367C49.9435 14.993 49.4179 14.6054 48.8486 14.3754C48.0374 14.042 47.1523 13.9437 46.2821 13.9164C45.2073 13.915 44.1331 13.9145 43.0589 13.916ZM43.0574 24.5772C43.0608 26.7312 43.0536 28.8857 43.0613 31.0397C43.9507 31.034 44.8406 31.0388 45.7301 31.0373C46.7141 31.044 47.7076 30.9985 48.6652 30.7566C49.3118 30.5889 49.9632 30.3086 50.4052 29.7903C50.8488 29.2834 51.0311 28.6011 51.0571 27.94C51.0868 27.2971 50.9697 26.6249 50.5987 26.0869C50.2334 25.5503 49.6526 25.1991 49.0464 24.994C48.0777 24.6601 47.0429 24.5969 46.0262 24.5768C45.036 24.5777 44.0467 24.5763 43.0574 24.5772Z" fill="#B11116"/>
<path d="M62.203 9.02745C66.0992 9.02362 69.9958 9.02697 73.8924 9.02601C75.1524 9.0126 76.4176 9.05332 77.6647 9.24831C78.713 9.41168 79.7512 9.6771 80.7237 10.1054C81.5987 10.4906 82.419 11.0143 83.1002 11.6879C83.7458 12.3198 84.2546 13.0859 84.6035 13.9171C84.9232 14.6774 85.1128 15.4875 85.204 16.3054C85.3192 17.3392 85.3005 18.3885 85.1368 19.4156C85.012 20.1774 84.7931 20.9262 84.4638 21.6262C83.7822 23.0951 82.5808 24.2923 81.1619 25.0598C80.3887 25.4829 79.5535 25.7866 78.6967 25.9917C77.5461 26.2734 76.3586 26.373 75.1764 26.3884C73.3567 26.3893 71.5375 26.3889 69.7183 26.3889C69.7159 29.4666 69.7174 32.5438 69.7174 35.621C69.715 35.7259 69.7078 35.8313 69.7044 35.9372C67.2051 35.9372 64.7053 35.9329 62.2059 35.9391C62.192 34.3945 62.204 32.849 62.2002 31.3039C62.2026 23.8784 62.1973 16.4529 62.203 9.02745ZM69.7183 14.0618C69.7159 16.4065 69.7188 18.7516 69.7169 21.0968C70.7547 21.0977 71.7929 21.0968 72.8306 21.0973C73.4916 21.1064 74.1559 21.0733 74.8058 20.9463C75.3458 20.839 75.882 20.667 76.349 20.3686C76.7013 20.1453 77.0056 19.8425 77.2192 19.4832C77.5005 19.0228 77.634 18.4867 77.6781 17.9534C77.7189 17.3119 77.6868 16.6503 77.4501 16.0452C77.2461 15.5029 76.854 15.0348 76.3553 14.7402C75.8786 14.4537 75.3367 14.2956 74.7929 14.1959C74.0844 14.0666 73.362 14.0517 72.6439 14.0608C71.6695 14.0613 70.6937 14.0613 69.7183 14.0618Z" fill="#B11116"/>
<path d="M88.5183 9.03044C91.0105 9.0175 93.5036 9.02756 95.9962 9.02517C95.9971 17.3063 95.9962 25.5874 95.9967 33.8691C95.9991 34.5566 95.9919 35.2441 96 35.9316C93.5074 35.9464 91.0138 35.9349 88.5207 35.9373C88.5183 26.9687 88.5222 17.9996 88.5183 9.03044Z" fill="#B11116"/>
</svg>
