<?xml version="1.0" encoding="UTF-8"?>
<svg version="1.1" xmlns="http://www.w3.org/2000/svg" width="200" height="200">
<path d="M0 0 C66 0 132 0 200 0 C200 66 200 132 200 200 C134 200 68 200 0 200 C0 134 0 68 0 0 Z " fill="#000000" transform="translate(0,0)"/>
<path d="M0 0 C1.69133808 0.95478763 3.32146984 2.01639656 4.9375 3.09375 C4.9375 2.10375 4.9375 1.11375 4.9375 0.09375 C7.2475 0.09375 9.5575 0.09375 11.9375 0.09375 C11.96215504 4.49031173 11.98033842 8.8868372 11.99243164 13.28344727 C11.99747121 14.78019918 12.00430287 16.27694616 12.01293945 17.77368164 C12.02502159 19.92074807 12.03073191 22.06774962 12.03515625 24.21484375 C12.04039307 25.5083374 12.04562988 26.80183105 12.05102539 28.13452148 C11.9375 31.09375 11.9375 31.09375 10.9375 32.09375 C8.93791636 32.13455783 6.93704746 32.13629356 4.9375 32.09375 C4.9375 30.77375 4.9375 29.45375 4.9375 28.09375 C4.15375 28.75375 3.37 29.41375 2.5625 30.09375 C-1.73599635 32.92892844 -6.08771404 32.99897213 -11.0625 32.09375 C-15.01613416 30.36034696 -17.41930639 27.94442542 -20 24.53125 C-21.97054772 18.15594855 -22.24231831 11.73654301 -19.5 5.59375 C-14.09012077 0.04515592 -7.64100364 -3.35741069 0 0 Z " fill="#3FE19D" transform="translate(94.0625,82.90625)"/>
<path d="M0 0 C3.4375 1.5 3.4375 1.5 6 3 C6.33 3 6.66 3 7 3 C7 2.01 7 1.02 7 0 C9.31 0 11.62 0 14 0 C14 10.89 14 21.78 14 33 C11.69 33 9.38 33 7 33 C7.33 31.68 7.66 30.36 8 29 C6.576875 29.99 6.576875 29.99 5.125 31 C0.51283521 33.61948508 -3.81546036 33.83124024 -9 33 C-13.2930776 31.01246407 -16.12969573 28.46411271 -18.29296875 24.18359375 C-19.82784763 19.44327722 -19.97419383 14.87096915 -19 10 C-14.63865589 2.45380515 -8.77890227 -1.16265692 0 0 Z " fill="#3AE69E" transform="translate(162,82)"/>
<path d="M0 0 C1.3303125 0.7425 1.3303125 0.7425 2.6875 1.5 C4.84869096 1.69222773 4.84869096 1.69222773 6.8125 0 C10.48985679 -1.91862093 13.66118672 -2.21052587 17.6875 -1.5 C22.17317236 0.78515384 24.46279332 3.02846427 26.6875 7.5 C27.02807617 10.27075195 27.02807617 10.27075195 26.98046875 13.23828125 C26.9659668 14.83833008 26.9659668 14.83833008 26.95117188 16.47070312 C26.92603516 17.57349609 26.90089844 18.67628906 26.875 19.8125 C26.85469727 21.49569336 26.85469727 21.49569336 26.83398438 23.21289062 C26.7987138 25.97575229 26.74942235 28.73762829 26.6875 31.5 C24.3775 31.5 22.0675 31.5 19.6875 31.5 C19.67291748 30.84926514 19.65833496 30.19853027 19.64331055 29.52807617 C19.56885451 26.58061694 19.47218734 23.63429358 19.375 20.6875 C19.34116211 19.15125977 19.34116211 19.15125977 19.30664062 17.58398438 C19.27119141 16.60107422 19.23574219 15.61816406 19.19921875 14.60546875 C19.17303467 13.69949951 19.14685059 12.79353027 19.11987305 11.86010742 C18.611163 9.08331464 17.93055049 8.16854906 15.6875 6.5 C13.1875 5.91666667 13.1875 5.91666667 10.6875 6.5 C7.36357962 9.55028045 7.26865209 12.63375886 7.06835938 16.89453125 C7.04580078 17.67183594 7.02324219 18.44914062 7 19.25 C6.96583984 20.04277344 6.93167969 20.83554688 6.89648438 21.65234375 C6.81430896 23.60107504 6.74921955 25.55051362 6.6875 27.5 C4.3775 27.5 2.0675 27.5 -0.3125 27.5 C-0.34988281 26.23542969 -0.38726562 24.97085938 -0.42578125 23.66796875 C-0.49143833 22.0077827 -0.55788576 20.34762778 -0.625 18.6875 C-0.64755859 17.85412109 -0.67011719 17.02074219 -0.69335938 16.16210938 C-0.7465332 14.95844727 -0.7465332 14.95844727 -0.80078125 13.73046875 C-0.82696533 12.99207764 -0.85314941 12.25368652 -0.88012695 11.49291992 C-1.42838621 8.96585027 -2.24042195 8.01976721 -4.3125 6.5 C-8.14516292 6.64090084 -8.14516292 6.64090084 -11.3125 8.5 C-11.46990605 10.20563778 -11.56343392 11.91727244 -11.62890625 13.62890625 C-11.67080078 14.66337891 -11.71269531 15.69785156 -11.75585938 16.76367188 C-11.79517578 17.85228516 -11.83449219 18.94089844 -11.875 20.0625 C-11.91818359 21.15498047 -11.96136719 22.24746094 -12.00585938 23.37304688 C-12.11232068 26.08189564 -12.21433516 28.79083992 -12.3125 31.5 C-14.64544775 31.54241723 -16.97952567 31.54092937 -19.3125 31.5 C-21.58549781 29.22700219 -20.54529895 23.92388636 -20.5625 20.875 C-20.583125 19.98425781 -20.60375 19.09351562 -20.625 18.17578125 C-20.66499432 11.38674543 -19.81160856 6.46769142 -15.3125 1.125 C-10.68474377 -2.63505194 -5.23608786 -2.37105865 0 0 Z " fill="#38E89E" transform="translate(42.3125,83.5)"/>
<path d="M0 0 C3 0.125 3 0.125 4 1.125 C4.13252559 2.57700327 4.2032288 4.03477914 4.24609375 5.4921875 C4.27896484 6.37777344 4.31183594 7.26335937 4.34570312 8.17578125 C4.40664337 10.05066621 4.46396623 11.92567243 4.51757812 13.80078125 C4.56881836 15.13302734 4.56881836 15.13302734 4.62109375 16.4921875 C4.6461499 17.30800293 4.67120605 18.12381836 4.69702148 18.96435547 C4.8817429 21.41754386 4.8817429 21.41754386 7 24.125 C11.07210885 24.65573253 11.07210885 24.65573253 15 24.125 C17.64946779 21.23936455 18.38727353 19.24206576 18.51171875 15.359375 C18.54716797 14.46992187 18.58261719 13.58046875 18.61914062 12.6640625 C18.64169922 11.74367188 18.66425781 10.82328125 18.6875 9.875 C18.72166016 8.93914062 18.75582031 8.00328125 18.79101562 7.0390625 C18.87332162 4.73449467 18.9425263 2.43029881 19 0.125 C21.31 0.125 23.62 0.125 26 0.125 C26.07432418 5.16036777 26.12868401 10.19541408 26.16479492 15.23120117 C26.1798534 16.94317184 26.20030455 18.65510411 26.22631836 20.36694336 C26.2628319 22.83196505 26.27975562 25.29647535 26.29296875 27.76171875 C26.30845261 28.52336838 26.32393646 29.28501801 26.33988953 30.06974792 C26.34164466 35.64956317 25.06908067 38.71107255 21.5 42.875 C18.79173144 45.13189047 16.18065555 45.24271566 12.8125 45.1875 C11.554375 45.166875 10.29625 45.14625 9 45.125 C9 42.815 9 40.505 9 38.125 C13.455 37.63 13.455 37.63 18 37.125 C18.33 35.145 18.66 33.165 19 31.125 C18.01 31.455 17.02 31.785 16 32.125 C11.00544092 32.64938572 7.12043344 32.67503096 2.5625 30.4375 C-1.66969796 26.6181994 -3.77762417 22.7178382 -4.12939453 17.03442383 C-4.13052246 16.30763428 -4.13165039 15.58084473 -4.1328125 14.83203125 C-4.13410156 14.03732422 -4.13539062 13.24261719 -4.13671875 12.42382812 C-4.13285156 11.60333984 -4.12898438 10.78285156 -4.125 9.9375 C-4.12886719 9.10541016 -4.13273437 8.27332031 -4.13671875 7.41601562 C-4.12491085 0.17187129 -4.12491085 0.17187129 0 0 Z " fill="#39EBA0" transform="translate(113,81.875)"/>
<path d="M0 0 C2.31 0 4.62 0 7 0 C7.02465504 4.39656173 7.04283842 8.7930872 7.05493164 13.18969727 C7.05997121 14.68644918 7.06680287 16.18319616 7.07543945 17.67993164 C7.08752159 19.82699807 7.09323191 21.97399962 7.09765625 24.12109375 C7.10551147 26.06133423 7.10551147 26.06133423 7.11352539 28.04077148 C7 31 7 31 6 32 C4.00041636 32.04080783 1.99954746 32.04254356 0 32 C0 30.68 0 29.36 0 28 C-0.99 28.66 -1.98 29.32 -3 30 C-5.91796875 30.1953125 -5.91796875 30.1953125 -9.1875 30.125 C-10.27417969 30.10695313 -11.36085938 30.08890625 -12.48046875 30.0703125 C-13.72763672 30.03550781 -13.72763672 30.03550781 -15 30 C-14.27734375 28.05859375 -14.27734375 28.05859375 -13 26 C-10.94140625 25.34765625 -10.94140625 25.34765625 -8.5625 25.0625 C-4.78498904 24.38466326 -4.78498904 24.38466326 -1.9375 21.8125 C-0.76419539 18.29258618 -0.60439873 15.69227852 -1 12 C-1.53625 11.113125 -2.0725 10.22625 -2.625 9.3125 C-3.07875 8.549375 -3.5325 7.78625 -4 7 C-3.1875 4.6875 -3.1875 4.6875 -2 3 C-1.01 3.33 -0.02 3.66 1 4 C0.67 2.68 0.34 1.36 0 0 Z " fill="#32EF9F" transform="translate(99,83)"/>
<path d="M0 0 C2.94855414 1.53837607 4.54706386 2.6607629 5.6328125 5.87109375 C6.26813494 9.44647218 6.21695113 11.5010124 4.75 14.875 C2.22139044 17.94545446 0.59789789 18.9335669 -3.375 19.375 C-7.5634385 18.94171326 -9.06240039 17.93759961 -12 15 C-13.43304064 12.13391871 -13.30644155 10.18699217 -13 7 C-9.39391826 0.62925559 -7.3276062 -0.62098358 0 0 Z " fill="#020D05" transform="translate(162,89)"/>
<path d="M0 0 C3.07504636 2.02822207 4.66581629 3.49753176 5.48046875 7.16015625 C5.73957582 11.35488967 5.33216044 13.49137933 3 17.0625 C-0.30516484 19.19708562 -2.18895351 19.81098044 -6.0625 19.546875 C-9.78819693 18.495267 -11.12606223 16.22083055 -13 13 C-13.68359886 8.67054058 -13.5279283 6.80949006 -11.125 3.125 C-7.55800211 -0.44199789 -4.99020234 -0.5074782 0 0 Z " fill="#010903" transform="translate(92,89)"/>
<path d="M0 0 C2.31 0 4.62 0 7 0 C7 10.89 7 21.78 7 33 C4.69 33 2.38 33 0 33 C0.226875 32.2575 0.45375 31.515 0.6875 30.75 C1.32999345 27.96695767 1.32999345 27.96695767 -0.4765625 26.12109375 C-2.32038827 23.55392095 -2.2674843 22.41726217 -2.0625 19.3125 C-1.8900091 14.26526624 -2.68622784 9.85626496 -4 5 C-2.68 5.33 -1.36 5.66 0 6 C0 4.02 0 2.04 0 0 Z " fill="#35E299" transform="translate(169,82)"/>
<path d="M0 0 C0.66 0.33 1.32 0.66 2 1 C0.69791667 2.43229167 -0.60416667 3.86458333 -1.90625 5.296875 C-3.36024492 7.22360515 -3.36024492 7.22360515 -3 11 C-2.01 11 -1.02 11 0 11 C-0.33 9.68 -0.66 8.36 -1 7 C0.32 7.33 1.64 7.66 3 8 C2.67 8.33 2.34 8.66 2 9 C1.84259395 10.70563778 1.74906608 12.41727244 1.68359375 14.12890625 C1.64169922 15.16337891 1.59980469 16.19785156 1.55664062 17.26367188 C1.51732422 18.35228516 1.47800781 19.44089844 1.4375 20.5625 C1.39431641 21.65498047 1.35113281 22.74746094 1.30664062 23.87304688 C1.20017932 26.58189564 1.09816484 29.29083992 1 32 C-1.33294775 32.04241723 -3.66702567 32.04092937 -6 32 C-8.27299781 29.72700219 -7.23279895 24.42388636 -7.25 21.375 C-7.270625 20.48425781 -7.29125 19.59351562 -7.3125 18.67578125 C-7.35285294 11.82586982 -6.53749601 6.82749555 -1.8125 1.5625 C-1.214375 1.046875 -0.61625 0.53125 0 0 Z " fill="#38DA97" transform="translate(29,83)"/>
<path d="M0 0 C1.65 0.33 3.3 0.66 5 1 C5.04937279 5.66307014 5.08570627 10.32598873 5.10986328 14.98925781 C5.11993188 16.57619883 5.13358767 18.16312125 5.15087891 19.75 C5.17509001 22.02869247 5.18647422 24.30714006 5.1953125 26.5859375 C5.20563507 27.29744965 5.21595764 28.00896179 5.22659302 28.74203491 C5.22699422 30.49631665 5.12202209 32.24996709 5 34 C4.34 34.66 3.68 35.32 3 36 C2.34 35.67 1.68 35.34 1 35 C1 34.01 1 33.02 1 32 C1.66 32 2.32 32 3 32 C3 31.34 3 30.68 3 30 C1.02 30 -0.96 30 -3 30 C-3.33 29.34 -3.66 28.68 -4 28 C-2.35 27.67 -0.7 27.34 1 27 C0.01 26.34 -0.98 25.68 -2 25 C-1.67 24.01 -1.34 23.02 -1 22 C-0.85222064 20.30132812 -0.75252934 18.59822511 -0.68359375 16.89453125 C-0.64169922 15.91162109 -0.59980469 14.92871094 -0.55664062 13.91601562 C-0.51732422 12.89185547 -0.47800781 11.86769531 -0.4375 10.8125 C-0.39431641 9.77673828 -0.35113281 8.74097656 -0.30664062 7.67382812 C-0.20055634 5.1160181 -0.09849854 2.55811155 0 0 Z " fill="#31EC9C" transform="translate(133,83)"/>
<path d="M0 0 C0.66 0 1.32 0 2 0 C2.07433779 4.89295147 2.12869027 9.78557183 2.16479492 14.67895508 C2.17985114 16.34242481 2.20030063 18.00585505 2.22631836 19.66918945 C2.26284207 22.06471522 2.27975782 24.45971467 2.29296875 26.85546875 C2.30845261 27.5952446 2.32393646 28.33502045 2.33988953 29.09721375 C2.34167066 34.6022994 1.02060943 37.64262233 -2.5 41.75 C-5.20826856 44.00689047 -7.81934445 44.11771566 -11.1875 44.0625 C-12.445625 44.041875 -13.70375 44.02125 -15 44 C-15 41.69 -15 39.38 -15 37 C-10.545 36.505 -10.545 36.505 -6 36 C-5.34 34.02 -4.68 32.04 -4 30 C-2.68 30 -1.36 30 0 30 C-0.33 30.99 -0.66 31.98 -1 33 C-1.66 32.67 -2.32 32.34 -3 32 C-3 32.99 -3 33.98 -3 35 C-1.515 34.505 -1.515 34.505 0 34 C0 22.78 0 11.56 0 0 Z " fill="#38E59D" transform="translate(137,83)"/>
<path d="M0 0 C2.31 0 4.62 0 7 0 C7.02465504 4.39656173 7.04283842 8.7930872 7.05493164 13.18969727 C7.05997121 14.68644918 7.06680287 16.18319616 7.07543945 17.67993164 C7.08752159 19.82699807 7.09323191 21.97399962 7.09765625 24.12109375 C7.10289307 25.4145874 7.10812988 26.70808105 7.11352539 28.04077148 C7 31 7 31 6 32 C4.00041636 32.04080783 1.99954746 32.04254356 0 32 C0 31.34 0 30.68 0 30 C1.65 30 3.3 30 5 30 C5 20.43 5 10.86 5 1 C4.01 1 3.02 1 2 1 C1.67 1.66 1.34 2.32 1 3 C0.67 2.01 0.34 1.02 0 0 Z " fill="#39C58B" transform="translate(99,83)"/>
<path d="M0 0 C2.31 0 4.62 0 7 0 C7 0.33 7 0.66 7 1 C5.02 1 3.04 1 1 1 C1.01047363 1.65073486 1.02094727 2.30146973 1.03173828 2.97192383 C1.07329835 5.9187433 1.09932608 8.86550111 1.125 11.8125 C1.14175781 12.83666016 1.15851563 13.86082031 1.17578125 14.91601562 C1.18222656 15.89892578 1.18867188 16.88183594 1.1953125 17.89453125 C1.20578613 18.80050049 1.21625977 19.70646973 1.22705078 20.63989258 C1 23 1 23 -1 26 C0.32 26.66 1.64 27.32 3 28 C2.195625 28.28875 1.39125 28.5775 0.5625 28.875 C-2.1326468 29.73262568 -2.1326468 29.73262568 -3 32 C-5.97 32 -8.94 32 -12 32 C-12 31.67 -12 31.34 -12 31 C-9.36 31 -6.72 31 -4 31 C-4.33 29.68 -4.66 28.36 -5 27 C-6.65 26.67 -8.3 26.34 -10 26 C-10 25.67 -10 25.34 -10 25 C-8.88625 24.731875 -7.7725 24.46375 -6.625 24.1875 C-2.78159049 23.34190981 -2.78159049 23.34190981 -1 20 C-0.6349209 17.77868577 -0.6349209 17.77868577 -0.5859375 15.33203125 C-0.54726562 14.43935547 -0.50859375 13.54667969 -0.46875 12.62695312 C-0.42234375 11.23379883 -0.42234375 11.23379883 -0.375 9.8125 C-0.31699219 8.40194336 -0.31699219 8.40194336 -0.2578125 6.96289062 C-0.16356813 4.6421229 -0.07795975 2.32136252 0 0 Z " fill="#3EE29E" transform="translate(132,82)"/>
<path d="M0 0 C0.33 0 0.66 0 1 0 C1.33 3.96 1.66 7.92 2 12 C2.66 12 3.32 12 4 12 C4.33 15.63 4.66 19.26 5 23 C3.68 23.33 2.36 23.66 1 24 C1 26.64 1 29.28 1 32 C0.67 32 0.34 32 0 32 C0 21.44 0 10.88 0 0 Z " fill="#004321" transform="translate(139,83)"/>
<path d="M0 0 C1.67110042 2.96178773 2.32682752 5.37071192 2.625 8.75 C2.69976562 9.54921875 2.77453125 10.3484375 2.8515625 11.171875 C2.90054688 11.77515625 2.94953125 12.3784375 3 13 C3.66 13 4.32 13 5 13 C5 9.37 5 5.74 5 2 C5.33 2 5.66 2 6 2 C6.2475 3.258125 6.495 4.51625 6.75 5.8125 C7.43248495 8.45362327 7.88456528 9.8579265 9.625 12 C13.16770262 13.49166426 16.17305588 13.19134721 20 13 C20 13.66 20 14.32 20 15 C18.56260487 15.02712066 17.12506137 15.04645067 15.6875 15.0625 C14.48673828 15.07990234 14.48673828 15.07990234 13.26171875 15.09765625 C11 15 11 15 8 14 C7.01 15.485 7.01 15.485 6 17 C5.34 17 4.68 17 4 17 C-0.0333905 11.20200116 -0.50604984 6.98629919 0 0 Z " fill="#49E0A2" transform="translate(143,94)"/>
<path d="M0 0 C0.91007812 0.10183594 1.82015625 0.20367187 2.7578125 0.30859375 C3.45648438 0.39238281 4.15515625 0.47617188 4.875 0.5625 C5.205 2.2125 5.535 3.8625 5.875 5.5625 C1.42 6.0575 1.42 6.0575 -3.125 6.5625 C-4.445 4.5825 -5.765 2.6025 -7.125 0.5625 C-4.50184968 -0.74907516 -2.89466564 -0.33399988 0 0 Z " fill="#31EFA0" transform="translate(122.125,107.4375)"/>
<path d="M0 0 C0.33 0 0.66 0 1 0 C1.33 2.31 1.66 4.62 2 7 C2.33 4.69 2.66 2.38 3 0 C3.33 0 3.66 0 4 0 C4.13277344 0.91523437 4.26554687 1.83046875 4.40234375 2.7734375 C4.57894531 3.96195312 4.75554687 5.15046875 4.9375 6.375 C5.11152344 7.55835937 5.28554687 8.74171875 5.46484375 9.9609375 C5.83462786 12.90702381 5.83462786 12.90702381 7 15 C6.01 14.67 5.02 14.34 4 14 C3.34 15.98 2.68 17.96 2 20 C1.34 20 0.68 20 0 20 C0 13.4 0 6.8 0 0 Z " fill="#053D24" transform="translate(69,94)"/>
<path d="M0 0 C3 0.125 3 0.125 4 1.125 C4.08631874 2.46767413 4.10706473 3.81474322 4.09765625 5.16015625 C4.09443359 5.96904297 4.09121094 6.77792969 4.08789062 7.61132812 C4.07951172 8.46146484 4.07113281 9.31160156 4.0625 10.1875 C4.05798828 11.04150391 4.05347656 11.89550781 4.04882812 12.77539062 C4.03700373 14.89195663 4.01906769 17.00848685 4 19.125 C3.67 19.125 3.34 19.125 3 19.125 C3 13.845 3 8.565 3 3.125 C1.35 2.795 -0.3 2.465 -2 2.125 C-2.33 7.735 -2.66 13.345 -3 19.125 C-3.33 19.125 -3.66 19.125 -4 19.125 C-4.02683987 16.14577407 -4.04676037 13.16678705 -4.0625 10.1875 C-4.07087891 9.33736328 -4.07925781 8.48722656 -4.08789062 7.61132812 C-4.09111328 6.80244141 -4.09433594 5.99355469 -4.09765625 5.16015625 C-4.10289307 4.4112915 -4.10812988 3.66242676 -4.11352539 2.89086914 C-3.91438253 -0.20676589 -3.13876126 0.13078172 0 0 Z " fill="#41A77F" transform="translate(113,81.875)"/>
<path d="M0 0 C0.66 0 1.32 0 2 0 C2.07433779 4.89295147 2.12869027 9.78557183 2.16479492 14.67895508 C2.17985114 16.34242481 2.20030063 18.00585505 2.22631836 19.66918945 C2.26284207 22.06471522 2.27975782 24.45971467 2.29296875 26.85546875 C2.30845261 27.5952446 2.32393646 28.33502045 2.33988953 29.09721375 C2.34134093 33.58319123 1.78478143 36.44084538 -1 40 C-1.99 40.495 -1.99 40.495 -3 41 C-3.495 39.515 -3.495 39.515 -4 38 C-3.34 38 -2.68 38 -2 38 C-2 37.34 -2 36.68 -2 36 C-1.34 36 -0.68 36 0 36 C0 24.12 0 12.24 0 0 Z " fill="#53E6A6" transform="translate(137,83)"/>
<path d="M0 0 C0.99 0.33 1.98 0.66 3 1 C3 2.32 3 3.64 3 5 C3.66 5 4.32 5 5 5 C6.23076923 10.41538462 6.23076923 10.41538462 5.0625 13.375 C4.711875 13.91125 4.36125 14.4475 4 15 C-0.11888494 9.98010898 -0.51211281 6.40141012 0 0 Z " fill="#32EBA0" transform="translate(74,97)"/>
<path d="M0 0 C0.80566406 0.00257812 1.61132812 0.00515625 2.44140625 0.0078125 C3.64603516 0.00394531 3.64603516 0.00394531 4.875 0 C7.00390625 0.1328125 7.00390625 0.1328125 9.00390625 1.1328125 C9.00390625 1.7928125 9.00390625 2.4528125 9.00390625 3.1328125 C6.70114051 5.35029062 5.47910533 6.10041256 2.25390625 6.3203125 C1.14015625 6.2275 1.14015625 6.2275 0.00390625 6.1328125 C-0.32609375 5.1428125 -0.65609375 4.1528125 -0.99609375 3.1328125 C-1.65609375 2.4728125 -2.31609375 1.8128125 -2.99609375 1.1328125 C-1.99609375 0.1328125 -1.99609375 0.1328125 0 0 Z " fill="#38EFA5" transform="translate(51.99609375,82.8671875)"/>
<path d="M0 0 C-0.66 1.32 -1.32 2.64 -2 4 C-3.98 4 -5.96 4 -8 4 C-8.33 4.99 -8.66 5.98 -9 7 C-9.99 7.33 -10.98 7.66 -12 8 C-12.66 6.35 -13.32 4.7 -14 3 C-13.13375 2.814375 -13.13375 2.814375 -12.25 2.625 C-9.9925292 2.0957459 -9.9925292 2.0957459 -8.125 0.9375 C-5.34310544 -0.28980643 -3.00536594 -0.13660754 0 0 Z " fill="#35EEA3" transform="translate(164,83)"/>
<path d="M0 0 C1 2 1 2 0.375 4.5625 C-1 7 -1 7 -3.625 7.8125 C-4.800625 7.9053125 -4.800625 7.9053125 -6 8 C-7.65 6.02 -9.3 4.04 -11 2 C-5.555 1.01 -5.555 1.01 0 0 Z " fill="#062513" transform="translate(132,112)"/>
<path d="M0 0 C4.67230248 -0.32222776 7.13884627 -0.43057686 11.375 1.6875 C14.07456145 4.06568509 15.04872818 5.57542144 16 9 C15.34 9 14.68 9 14 9 C13.67 7.68 13.34 6.36 13 5 C9.72226496 5.75150023 9.72226496 5.75150023 8 9 C7.01 8.01 6.02 7.02 5 6 C6.32 5.34 7.64 4.68 9 4 C9 3.34 9 2.68 9 2 C6.03 1.67 3.06 1.34 0 1 C0 0.67 0 0.34 0 0 Z " fill="#42DC9D" transform="translate(52,82)"/>
<path d="M0 0 C-0.33 3.96 -0.66 7.92 -1 12 C-1.33 12 -1.66 12 -2 12 C-2.33 9.69 -2.66 7.38 -3 5 C-3.33 5 -3.66 5 -4 5 C-4 3.35 -4 1.7 -4 0 C-6.31 0 -8.62 0 -11 0 C-10.67 1.32 -10.34 2.64 -10 4 C-11.65 3.01 -13.3 2.02 -15 1 C-12.669626 -1.330374 -11.81289219 -1.38990587 -8.625 -1.75 C-7.46871094 -1.89695312 -7.46871094 -1.89695312 -6.2890625 -2.046875 C-4 -2 -4 -2 0 0 Z " fill="#001004" transform="translate(110,83)"/>
<path d="M0 0 C2.31 0 4.62 0 7 0 C7 0.33 7 0.66 7 1 C5.02 1 3.04 1 1 1 C1 8.26 1 15.52 1 23 C-0.32 23.33 -1.64 23.66 -3 24 C-2.67854004 23.43829102 -2.35708008 22.87658203 -2.02587891 22.29785156 C-0.90241943 19.78143067 -0.69140607 17.97655795 -0.5859375 15.234375 C-0.54726562 14.34492187 -0.50859375 13.45546875 -0.46875 12.5390625 C-0.4378125 11.61867188 -0.406875 10.69828125 -0.375 9.75 C-0.33632812 8.81414062 -0.29765625 7.87828125 -0.2578125 6.9140625 C-0.16375156 4.60956946 -0.07810601 2.30507987 0 0 Z " fill="#39C28B" transform="translate(132,82)"/>
<path d="M0 0 C1.32 0.66 2.64 1.32 4 2 C4 1.34 4 0.68 4 0 C4.99 0.33 5.98 0.66 7 1 C5.09598862 2.90401138 3.66574314 3.93520439 0.953125 4.19921875 C-1.03233273 4.1886578 -3.0169914 4.09915043 -5 4 C-5 3.01 -5 2.02 -5 1 C-3.35 1.33 -1.7 1.66 0 2 C0 1.34 0 0.68 0 0 Z " fill="#042711" transform="translate(89,104)"/>
<path d="M0 0 C-1.33333333 0.66666667 -2.66666667 1.33333333 -4 2 C-4.61875 2.350625 -5.2375 2.70125 -5.875 3.0625 C-8.54074552 4.2385642 -11.12431827 4.60786158 -14 5 C-9.10666796 -0.05644311 -6.85563609 -0.11057478 0 0 Z " fill="#45DCA1" transform="translate(162,82)"/>
<path d="M0 0 C6.4 -0.49230769 6.4 -0.49230769 9.4375 2 C10.2109375 2.99 10.2109375 2.99 11 4 C7.0507432 3.44894091 3.65079826 2.61064629 0 1 C0 0.67 0 0.34 0 0 Z " fill="#022B0E" transform="translate(85,89)"/>
<path d="M0 0 C0.33 0.66 0.66 1.32 1 2 C0.0625 4.625 0.0625 4.625 -1 7 C-2.32 6.67 -3.64 6.34 -5 6 C-5.33 6.99 -5.66 7.98 -6 9 C-6.66 8.01 -7.32 7.02 -8 6 C-7.01 5.34 -6.02 4.68 -5 4 C-4.01 4.33 -3.02 4.66 -2 5 C-1.34 3.35 -0.68 1.7 0 0 Z " fill="#31CB8A" transform="translate(48,84)"/>
<path d="M0 0 C-6 4 -6 4 -8.1875 3.625 C-8.785625 3.41875 -9.38375 3.2125 -10 3 C-7.29536552 -0.8183075 -4.37912428 -0.24787496 0 0 Z " fill="#3DE09F" transform="translate(39,82)"/>
<path d="M0 0 C0.66 0.33 1.32 0.66 2 1 C1.34 2.65 0.68 4.3 0 6 C-2.97 5.505 -2.97 5.505 -6 5 C-5.195625 4.360625 -4.39125 3.72125 -3.5625 3.0625 C-1.7249496 1.59396498 -1.7249496 1.59396498 0 0 Z " fill="#023513" transform="translate(169,110)"/>
<path d="M0 0 C0.33 0 0.66 0 1 0 C1.33 2.97 1.66 5.94 2 9 C1.01 9.495 1.01 9.495 0 10 C-1.36952673 7.26094655 -1.12621361 5.02912668 -1 2 C-0.67 1.34 -0.34 0.68 0 0 Z " fill="#053E22" transform="translate(150,94)"/>
<path d="M0 0 C0.33 0.99 0.66 1.98 1 3 C-1.33333333 7.66666667 -1.33333333 7.66666667 -4 9 C-4.33 8.01 -4.66 7.02 -5 6 C-4.34 6 -3.68 6 -3 6 C-3 5.34 -3 4.68 -3 4 C-2.34 4 -1.68 4 -1 4 C-0.67 2.68 -0.34 1.36 0 0 Z " fill="#48E29E" transform="translate(138,115)"/>
<path d="M0 0 C2 3 2 3 2 5 C0.02 5.99 0.02 5.99 -2 7 C-2 5.02 -2 3.04 -2 1 C-1.34 0.67 -0.68 0.34 0 0 Z " fill="#32EFA5" transform="translate(147,89)"/>
<path d="M0 0 C2.01822917 0.06510417 4.03645833 0.13020833 6.0546875 0.1953125 C6.0546875 0.5253125 6.0546875 0.8553125 6.0546875 1.1953125 C4.0746875 1.1953125 2.0946875 1.1953125 0.0546875 1.1953125 C0.3846875 2.5153125 0.7146875 3.8353125 1.0546875 5.1953125 C-0.5953125 4.2053125 -2.2453125 3.2153125 -3.9453125 2.1953125 C-1.9453125 0.1953125 -1.9453125 0.1953125 0 0 Z " fill="#0A522D" transform="translate(98.9453125,81.8046875)"/>
<path d="M0 0 C0.33 0 0.66 0 1 0 C1.33 3.63 1.66 7.26 2 11 C1.01 10.67 0.02 10.34 -1 10 C-0.67 6.7 -0.34 3.4 0 0 Z M-2 11 C0 12 0 12 0 12 Z " fill="#023019" transform="translate(142,95)"/>
</svg>
